<?xml version="1.0" encoding="UTF-8" standalone="no"?>
<!-- Created with Inkscape (http://www.inkscape.org/) -->

<svg
   xmlns:dc="http://purl.org/dc/elements/1.1/"
   xmlns:cc="http://creativecommons.org/ns#"
   xmlns:rdf="http://www.w3.org/1999/02/22-rdf-syntax-ns#"
   xmlns:svg="http://www.w3.org/2000/svg"
   xmlns="http://www.w3.org/2000/svg"
   xmlns:xlink="http://www.w3.org/1999/xlink"
   xmlns:sodipodi="http://sodipodi.sourceforge.net/DTD/sodipodi-0.dtd"
   xmlns:inkscape="http://www.inkscape.org/namespaces/inkscape"
   width="512"
   height="128"
   viewBox="0 0 512 128"
   id="svg2"
   version="1.1"
   inkscape:version="0.92.1 r"
   sodipodi:docname="logo.svg"
   inkscape:export-filename="/home/william/Documents/git/Original/Angl-Resource-Pack/logo.png"
   inkscape:export-xdpi="384"
   inkscape:export-ydpi="384">
  <sodipodi:namedview
     id="base"
     pagecolor="#ffffff"
     bordercolor="#666666"
     borderopacity="1.0"
     inkscape:pageopacity="0.0"
     inkscape:pageshadow="2"
     inkscape:zoom="2.828427"
     inkscape:cx="130.64493"
     inkscape:cy="21.698447"
     inkscape:document-units="px"
     inkscape:current-layer="text4525"
     showgrid="false"
     units="px"
     width="512px"
     inkscape:window-width="2160"
     inkscape:window-height="1320"
     inkscape:window-x="0"
     inkscape:window-y="56"
     inkscape:window-maximized="1"
     inkscape:snap-bbox="false"
     inkscape:bbox-nodes="true"
     inkscape:bbox-paths="true"
     inkscape:snap-bbox-midpoints="true"
     inkscape:object-nodes="true"
     inkscape:object-paths="true"
     inkscape:snap-smooth-nodes="true"
     inkscape:snap-nodes="true"
     inkscape:snap-grids="true"
     inkscape:snap-object-midpoints="false"
     showguides="false"
     inkscape:snap-intersection-paths="true">
    <inkscape:grid
       type="xygrid"
       id="grid3338"
       empspacing="8" />
  </sodipodi:namedview>
  <defs
     id="defs4">
    <linearGradient
       inkscape:collect="always"
       id="linearGradient5661">
      <stop
         style="stop-color:#000000;stop-opacity:1;"
         offset="0"
         id="stop5657" />
      <stop
         style="stop-color:#000000;stop-opacity:0;"
         offset="1"
         id="stop5659" />
    </linearGradient>
    <linearGradient
       id="linearGradient5402"
       inkscape:collect="always">
      <stop
         id="stop5398"
         offset="0"
         style="stop-color:#880e4f;stop-opacity:1" />
      <stop
         id="stop5400"
         offset="1"
         style="stop-color:#e53935;stop-opacity:1" />
    </linearGradient>
    <inkscape:perspective
       id="perspective4904"
       inkscape:persp3d-origin="64 : 42.666667 : 1"
       inkscape:vp_z="128 : 64 : 1"
       inkscape:vp_y="0 : 1000 : 0"
       inkscape:vp_x="-184 : 40 : 1"
       sodipodi:type="inkscape:persp3d" />
    <linearGradient
       gradientUnits="userSpaceOnUse"
       y2="24"
       x2="104"
       y1="0"
       x1="128"
       id="linearGradient5404"
       xlink:href="#linearGradient5402"
       inkscape:collect="always" />
    <linearGradient
       inkscape:collect="always"
       xlink:href="#linearGradient5402"
       id="linearGradient5617"
       gradientUnits="userSpaceOnUse"
       x1="128"
       y1="0"
       x2="104"
       y2="24" />
    <linearGradient
       inkscape:collect="always"
       xlink:href="#linearGradient5661"
       id="linearGradient5663"
       x1="104"
       y1="24"
       x2="104"
       y2="27"
       gradientUnits="userSpaceOnUse" />
    <linearGradient
       inkscape:collect="always"
       xlink:href="#linearGradient5661"
       id="linearGradient5668"
       gradientUnits="userSpaceOnUse"
       x1="104"
       y1="24"
       x2="104"
       y2="32" />
    <linearGradient
       inkscape:collect="always"
       xlink:href="#linearGradient5402"
       id="linearGradient5684"
       gradientUnits="userSpaceOnUse"
       x1="128"
       y1="0"
       x2="104"
       y2="24" />
    <linearGradient
       inkscape:collect="always"
       xlink:href="#linearGradient5661"
       id="linearGradient5704"
       gradientUnits="userSpaceOnUse"
       x1="104"
       y1="24"
       x2="104"
       y2="32" />
    <linearGradient
       inkscape:collect="always"
       xlink:href="#linearGradient5661"
       id="linearGradient4875"
       x1="64"
       y1="58"
       x2="64"
       y2="66"
       gradientUnits="userSpaceOnUse" />
    <linearGradient
       inkscape:collect="always"
       xlink:href="#linearGradient5661"
       id="linearGradient4882"
       gradientUnits="userSpaceOnUse"
       x1="64"
       y1="58"
       x2="64"
       y2="74" />
    <linearGradient
       inkscape:collect="always"
       xlink:href="#linearGradient5661"
       id="linearGradient4527"
       x1="104"
       y1="940.36218"
       x2="104"
       y2="956.36218"
       gradientUnits="userSpaceOnUse"
       gradientTransform="translate(0,-924.3622)" />
    <linearGradient
       inkscape:collect="always"
       xlink:href="#linearGradient5661"
       id="linearGradient4794"
       gradientUnits="userSpaceOnUse"
       gradientTransform="translate(0,-924.3622)"
       x1="104"
       y1="940.36218"
       x2="104"
       y2="956.36218" />
    <marker
       inkscape:isstock="true"
       style="overflow:visible"
       id="marker4588I"
       refX="0"
       refY="0"
       orient="auto"
       inkscape:stockid="marker4588I">
      <path
         inkscape:connector-curvature="0"
         transform="scale(-0.2)"
         style="fill:#000000;fill-opacity:1;fill-rule:evenodd;stroke:#000000;stroke-width:1.00000003pt;stroke-opacity:1"
         d="M 5.77,0 -2.88,5 V -5 Z"
         id="path7800" />
    </marker>
    <marker
       inkscape:isstock="true"
       style="overflow:visible"
       id="marker4616k"
       refX="0"
       refY="0"
       orient="auto"
       inkscape:stockid="marker4616k">
      <path
         inkscape:connector-curvature="0"
         transform="scale(0.2)"
         style="fill:#000000;fill-opacity:1;fill-rule:evenodd;stroke:#000000;stroke-width:1.00000003pt;stroke-opacity:1"
         d="M 5.77,0 -2.88,5 V -5 Z"
         id="path7803" />
    </marker>
    <marker
       inkscape:stockid="TriangleInSv"
       orient="auto"
       refY="0"
       refX="0"
       id="TriangleInSv"
       style="overflow:visible"
       inkscape:isstock="true"
       inkscape:collect="always">
      <path
         id="path8048"
         d="M 5.77,0 -2.88,5 V -5 Z"
         style="fill:#e6e6e6;fill-opacity:1;fill-rule:evenodd;stroke:#e6e6e6;stroke-width:1.00000003pt;stroke-opacity:1"
         transform="scale(-0.2)"
         inkscape:connector-curvature="0" />
    </marker>
    <marker
       inkscape:stockid="marker54746"
       orient="auto"
       refY="0"
       refX="0"
       id="marker54746"
       style="overflow:visible"
       inkscape:isstock="true"
       inkscape:collect="always">
      <path
         id="path8051"
         d="M 5.77,0 -2.88,5 V -5 Z"
         style="fill:#e6e6e6;fill-opacity:1;fill-rule:evenodd;stroke:#e6e6e6;stroke-width:1.00000003pt;stroke-opacity:1"
         transform="scale(0.2)"
         inkscape:connector-curvature="0" />
    </marker>
  </defs>
  <metadata
     id="metadata7">
    <rdf:RDF>
      <cc:Work
         rdf:about="">
        <dc:format>image/svg+xml</dc:format>
        <dc:type
           rdf:resource="http://purl.org/dc/dcmitype/StillImage" />
        <dc:title />
      </cc:Work>
    </rdf:RDF>
  </metadata>
  <g
     inkscape:label="Layer 1"
     inkscape:groupmode="layer"
     id="layer1"
     transform="translate(0,-924.3622)">
    <g
       id="g4527">
      <g
         aria-label="Angl"
         style="font-style:normal;font-weight:normal;font-size:40px;line-height:125%;font-family:sans-serif;letter-spacing:0px;word-spacing:0px;fill:#000000;fill-opacity:1;stroke:none;stroke-width:1px;stroke-linecap:butt;stroke-linejoin:miter;stroke-opacity:1"
         id="text4525">
        <path
           d="m 242.72198,961.38464 -12.84375,34.82813 h 25.73438 z m 0.0235,-22.95344 32.03898,83.6097 h -9.84375 l -6.375,-17.9531 h -31.54687 l -6.375,17.9531 h -9.98438 z"
           style="font-style:normal;font-variant:normal;font-weight:normal;font-stretch:normal;font-size:96px;font-family:'DejaVu Sans';-inkscape-font-specification:'DejaVu Sans';text-align:center;writing-mode:lr-tb;text-anchor:middle"
           id="path4590"
           inkscape:connector-curvature="0"
           sodipodi:nodetypes="cccccccccccc" />
        <path
           d="m 328.22198,990.35339 v 31.68751 h -8.625 v -31.40626 q 0,-7.45312 -2.90625,-11.15625 -2.90625,-3.70312 -8.71875,-3.70312 -6.98437,0 -11.01562,4.45312 -4.03125,4.45313 -4.03125,12.14063 v 29.67188 h -8.67188 v -52.50001 h 8.67188 v 8.15625 q 3.09375,-4.73437 7.26562,-7.07812 4.21875,-2.34375 9.70313,-2.34375 9.04687,0 13.6875,5.625 4.64062,5.57812 4.64062,16.45312 z"
           style="font-style:normal;font-variant:normal;font-weight:normal;font-stretch:normal;font-size:96px;font-family:'DejaVu Sans';-inkscape-font-specification:'DejaVu Sans';text-align:center;writing-mode:lr-tb;text-anchor:middle"
           id="path4592" />
        <path
           d="m 380.06573,995.18152 q 0,-9.375 -3.89062,-14.53125 -3.84375,-5.15625 -10.82813,-5.15625 -6.9375,0 -10.82812,5.15625 -3.84375,5.15625 -3.84375,14.53125 0,9.32808 3.84375,14.48438 3.89062,5.1562 10.82812,5.1562 6.98438,0 10.82813,-5.1562 3.89062,-5.1563 3.89062,-14.48438 z m 8.625,20.34378 q 0,13.4062 -5.95312,19.9218 -5.95313,6.5625 -18.23438,6.5625 -4.54687,0 -8.57812,-0.7031 -4.03125,-0.6562 -7.82813,-2.0625 v -8.3906 q 3.79688,2.0625 7.5,3.0469 3.70313,0.9843 7.54688,0.9843 8.48437,0 12.70312,-4.4531 4.21875,-4.4062 4.21875,-13.3594 v -4.2656 q -2.67187,4.6406 -6.84375,6.9375 -4.17187,2.2969 -9.98437,2.2969 -9.65625,0 -15.5625,-7.3594 -5.90625,-7.3594 -5.90625,-19.49998 0,-12.1875 5.90625,-19.54688 5.90625,-7.35937 15.5625,-7.35937 5.8125,0 9.98437,2.29687 4.17188,2.29688 6.84375,6.9375 v -7.96875 h 8.625 z"
           style="font-style:normal;font-variant:normal;font-weight:normal;font-stretch:normal;font-size:96px;font-family:'DejaVu Sans';-inkscape-font-specification:'DejaVu Sans';text-align:center;writing-mode:lr-tb;text-anchor:middle"
           id="path4594" />
        <path
           d="m 406.45636,949.10339 h 8.625 v 72.93751 h -8.625 z"
           style="font-style:normal;font-variant:normal;font-weight:normal;font-stretch:normal;font-size:96px;font-family:'DejaVu Sans';-inkscape-font-specification:'DejaVu Sans';text-align:center;writing-mode:lr-tb;text-anchor:middle"
           id="path4596" />
      </g>
      <g
         transform="matrix(2.7234043,0,0,2.7234043,-2.7234043,921.63879)"
         id="g4579">
        <path
           id="path9"
           style="opacity:0.05"
           d="m 36.31,5 c 5.859,4.062 9.688,10.831 9.688,18.5 0,12.426 -10.07,22.5 -22.5,22.5 -7.669,0 -14.438,-3.828 -18.5,-9.688 1.037,1.822 2.306,3.499 3.781,4.969 4.085,3.712 9.514,5.969 15.469,5.969 12.703,0 23,-10.298 23,-23 0,-5.954 -2.256,-11.384 -5.969,-15.469 C 39.81,7.306 38.132,6.037 36.31,5 Z m 4.969,3.781 c 3.854,4.113 6.219,9.637 6.219,15.719 0,12.703 -10.297,23 -23,23 -6.081,0 -11.606,-2.364 -15.719,-6.219 4.16,4.144 9.883,6.719 16.219,6.719 12.703,0 23,-10.298 23,-23 0,-6.335 -2.575,-12.06 -6.719,-16.219 z"
           inkscape:connector-curvature="0" />
        <path
           id="path11"
           style="opacity:0.1"
           d="m 41.28,8.781 c 3.712,4.085 5.969,9.514 5.969,15.469 0,12.703 -10.297,23 -23,23 -5.954,0 -11.384,-2.256 -15.469,-5.969 4.113,3.854 9.637,6.219 15.719,6.219 12.703,0 23,-10.298 23,-23 0,-6.081 -2.364,-11.606 -6.219,-15.719 z"
           inkscape:connector-curvature="0" />
        <path
           id="path13"
           style="opacity:0.2"
           d="M 31.25,2.375 C 39.865,5.529 46,13.792 46,23.505 c 0,12.426 -10.07,22.5 -22.5,22.5 -9.708,0 -17.971,-6.135 -21.12,-14.75 a 23,23 0 0 0 44.875,-7 23,23 0 0 0 -16,-21.875 z"
           inkscape:connector-curvature="0" />
        <g
           id="g17"
           style="fill:#4d4d4d"
           transform="rotate(-90,24,24)">
          <path
             id="path15"
             style="fill:#4d4d4d"
             d="M 24,1 C 36.703,1 47,11.297 47,24 47,36.703 36.703,47 24,47 11.297,47 1,36.703 1,24 1,11.297 11.297,1 24,1 Z"
             inkscape:connector-curvature="0" />
        </g>
        <path
           id="path19"
           style="opacity:0.1"
           d="m 40.03,7.531 c 3.712,4.084 5.969,9.514 5.969,15.469 0,12.703 -10.297,23 -23,23 C 17.045,46 11.615,43.744 7.53,40.031 11.708,44.322 17.54,47 23.999,47 c 12.703,0 23,-10.298 23,-23 0,-6.462 -2.677,-12.291 -6.969,-16.469 z"
           inkscape:connector-curvature="0" />
        <g
           id="g7954"
           transform="translate(-0.24999944,-1.5)">
          <g
             transform="translate(0.99971711,1.0000014)"
             style="opacity:0.1"
             id="g7946">
            <path
               style="fill:none;fill-rule:evenodd;stroke:#000000;stroke-width:2.31423783;stroke-linecap:butt;stroke-linejoin:miter;stroke-miterlimit:4;stroke-dasharray:none;stroke-dashoffset:0;stroke-opacity:1"
               d="M 17.057286,35.10806 24,15.822737 30.942714,35.10806"
               id="path4578"
               inkscape:connector-curvature="0"
               sodipodi:nodetypes="ccc" />
            <path
               style="opacity:1;fill:none;fill-opacity:1;stroke:#000000;stroke-width:2.31399989;stroke-linecap:square;stroke-linejoin:miter;stroke-miterlimit:4;stroke-dasharray:none;stroke-opacity:1;marker-start:url(#marker4588I);marker-end:url(#marker4616k);paint-order:normal"
               id="path4580"
               sodipodi:type="arc"
               sodipodi:cx="24"
               sodipodi:cy="15.822729"
               sodipodi:rx="16.971079"
               sodipodi:ry="16.971083"
               sodipodi:start="0.99483767"
               sodipodi:end="2.146755"
               sodipodi:open="true"
               d="m 33.243112,30.055877 a 16.971079,16.971083 0 0 1 -18.486224,-10e-7" />
          </g>
          <path
             style="fill:none;fill-rule:evenodd;stroke:#e6e6e6;stroke-width:2.31423783;stroke-linecap:butt;stroke-linejoin:miter;stroke-miterlimit:4;stroke-dasharray:none;stroke-dashoffset:0;stroke-opacity:1"
             d="M 17.057286,35.10806 24,15.822737 30.942714,35.10806"
             id="path4168"
             inkscape:connector-curvature="0"
             sodipodi:nodetypes="ccc" />
          <path
             style="opacity:1;fill:none;fill-opacity:1;stroke:#e6e6e6;stroke-width:2.31423783;stroke-linecap:square;stroke-linejoin:miter;stroke-miterlimit:4;stroke-dasharray:none;stroke-opacity:1;marker-start:url(#TriangleInSv);marker-end:url(#marker54746)"
             id="path4178"
             sodipodi:type="arc"
             sodipodi:cx="24"
             sodipodi:cy="15.822729"
             sodipodi:rx="16.971079"
             sodipodi:ry="16.971083"
             sodipodi:start="0.99483767"
             sodipodi:end="2.146755"
             sodipodi:open="true"
             d="m 33.243112,30.055877 a 16.971079,16.971083 0 0 1 -18.486224,-10e-7" />
        </g>
      </g>
    </g>
  </g>
</svg>
