<?xml version="1.0" encoding="UTF-8" standalone="no"?>
<!-- Created with Inkscape (http://www.inkscape.org/) -->

<svg
   xmlns:dc="http://purl.org/dc/elements/1.1/"
   xmlns:cc="http://creativecommons.org/ns#"
   xmlns:rdf="http://www.w3.org/1999/02/22-rdf-syntax-ns#"
   xmlns:svg="http://www.w3.org/2000/svg"
   xmlns="http://www.w3.org/2000/svg"
   xmlns:xlink="http://www.w3.org/1999/xlink"
   xmlns:sodipodi="http://sodipodi.sourceforge.net/DTD/sodipodi-0.dtd"
   xmlns:inkscape="http://www.inkscape.org/namespaces/inkscape"
   width="128"
   height="128"
   viewBox="0 0 128 128"
   id="svg2"
   version="1.1"
   inkscape:version="0.91 r"
   sodipodi:docname="cobblestone.svg">
  <defs
     id="defs4">
    <linearGradient
       inkscape:collect="always"
       id="linearGradient4187">
      <stop
         style="stop-color:#ffffff;stop-opacity:0.24293785"
         offset="0"
         id="stop4189" />
      <stop
         style="stop-color:#000000;stop-opacity:0"
         offset="1"
         id="stop4191" />
    </linearGradient>
    <radialGradient
       inkscape:collect="always"
       xlink:href="#linearGradient4187"
       id="radialGradient4550"
       cx="96.432365"
       cy="1028.3707"
       fx="96.432365"
       fy="1028.3707"
       r="50.44379"
       gradientTransform="matrix(1,0,0,0.83289433,0,171.84656)"
       gradientUnits="userSpaceOnUse" />
    <radialGradient
       inkscape:collect="always"
       xlink:href="#linearGradient4187"
       id="radialGradient4552"
       cx="32"
       cy="956.36218"
       fx="32"
       fy="956.36218"
       r="34"
       gradientTransform="matrix(1,0,0,1.4705888,0,-450.05335)"
       gradientUnits="userSpaceOnUse" />
    <radialGradient
       inkscape:collect="always"
       xlink:href="#linearGradient4187"
       id="radialGradient4554"
       cx="160"
       cy="956.36218"
       fx="160"
       fy="956.36218"
       r="34"
       gradientTransform="matrix(1,0,0,1.4705888,0,-450.05335)"
       gradientUnits="userSpaceOnUse" />
    <radialGradient
       inkscape:collect="always"
       xlink:href="#linearGradient4187"
       id="radialGradient4556"
       cx="104"
       cy="970.948"
       fx="104"
       fy="970.948"
       r="42"
       gradientTransform="matrix(1,0,0,1.2241484,0,-217.63645)"
       gradientUnits="userSpaceOnUse" />
    <radialGradient
       inkscape:collect="always"
       xlink:href="#linearGradient4187"
       id="radialGradient4558"
       cx="-24"
       cy="970.948"
       fx="-24"
       fy="970.948"
       r="42"
       gradientTransform="matrix(1,0,0,1.2241484,0,-217.63645)"
       gradientUnits="userSpaceOnUse" />
    <radialGradient
       inkscape:collect="always"
       xlink:href="#linearGradient4187"
       id="radialGradient4560"
       cx="96.432365"
       cy="900.37061"
       fx="96.432365"
       fy="900.37061"
       r="50.443794"
       gradientTransform="matrix(1,0,0,0.83289383,0,150.45749)"
       gradientUnits="userSpaceOnUse" />
    <radialGradient
       inkscape:collect="always"
       xlink:href="#linearGradient4187"
       id="radialGradient4562"
       cx="-31.567635"
       cy="1028.3706"
       fx="-31.567635"
       fy="1028.3706"
       r="50.443794"
       gradientTransform="matrix(1,0,0,0.83289332,0,171.84759)"
       gradientUnits="userSpaceOnUse" />
    <radialGradient
       inkscape:collect="always"
       xlink:href="#linearGradient4187"
       id="radialGradient4564"
       cx="32"
       cy="1084.3622"
       fx="32"
       fy="1084.3622"
       r="34"
       gradientTransform="matrix(1,0,0,1.4705882,0,-510.28809)"
       gradientUnits="userSpaceOnUse" />
    <radialGradient
       inkscape:collect="always"
       xlink:href="#linearGradient4187"
       id="radialGradient4566"
       cx="-24"
       cy="1098.948"
       fx="-24"
       fy="1098.948"
       r="42"
       gradientTransform="matrix(1,0,0,1.2241479,0,-246.32693)"
       gradientUnits="userSpaceOnUse" />
    <radialGradient
       inkscape:collect="always"
       xlink:href="#linearGradient4187"
       id="radialGradient4568"
       cx="104"
       cy="1098.948"
       fx="104"
       fy="1098.948"
       r="42"
       gradientTransform="matrix(1,0,0,1.2241479,0,-246.32693)"
       gradientUnits="userSpaceOnUse" />
    <radialGradient
       inkscape:collect="always"
       xlink:href="#linearGradient4187"
       id="radialGradient4570"
       cx="160"
       cy="1084.3622"
       fx="160"
       fy="1084.3622"
       r="34"
       gradientTransform="matrix(1,0,0,1.4705882,0,-510.28809)"
       gradientUnits="userSpaceOnUse" />
    <radialGradient
       inkscape:collect="always"
       xlink:href="#linearGradient4187"
       id="radialGradient4572"
       cx="23.585787"
       cy="1010.948"
       fx="23.585787"
       fy="1010.948"
       r="26.414213"
       gradientTransform="matrix(1,0,0,1.0378593,0,-38.273806)"
       gradientUnits="userSpaceOnUse" />
    <radialGradient
       inkscape:collect="always"
       xlink:href="#linearGradient4187"
       id="radialGradient4574"
       cx="151.58578"
       cy="1010.948"
       fx="151.58578"
       fy="1010.948"
       r="26.414213"
       gradientTransform="matrix(1,0,0,1.0378593,0,-38.273806)"
       gradientUnits="userSpaceOnUse" />
  </defs>
  <sodipodi:namedview
     id="base"
     pagecolor="#ffffff"
     bordercolor="#666666"
     borderopacity="1.0"
     inkscape:pageopacity="0.0"
     inkscape:pageshadow="2"
     inkscape:zoom="1.4"
     inkscape:cx="18.593163"
     inkscape:cy="4.3885837"
     inkscape:document-units="px"
     inkscape:current-layer="layer1"
     showgrid="true"
     units="px"
     inkscape:window-width="1366"
     inkscape:window-height="707"
     inkscape:window-x="0"
     inkscape:window-y="0"
     inkscape:window-maximized="1"
     inkscape:snap-bbox="true"
     inkscape:bbox-paths="true"
     inkscape:bbox-nodes="true"
     inkscape:snap-bbox-edge-midpoints="true"
     inkscape:snap-bbox-midpoints="true"
     inkscape:snap-object-midpoints="true"
     inkscape:snap-others="false"
     inkscape:snap-intersection-paths="false"
     inkscape:object-nodes="true">
    <inkscape:grid
       type="xygrid"
       id="grid4136"
       empspacing="4"
       dotted="false" />
  </sodipodi:namedview>
  <metadata
     id="metadata7">
    <rdf:RDF>
      <cc:Work
         rdf:about="">
        <dc:format>image/svg+xml</dc:format>
        <dc:type
           rdf:resource="http://purl.org/dc/dcmitype/StillImage" />
        <dc:title />
      </cc:Work>
    </rdf:RDF>
  </metadata>
  <g
     inkscape:label="Layer 1"
     inkscape:groupmode="layer"
     id="layer1"
     transform="translate(0,-924.36216)"
     style="display:inline">
    <path
       style="fill:url(#radialGradient4550);fill-opacity:1;fill-rule:evenodd;stroke:#000000;stroke-width:4;stroke-linecap:butt;stroke-linejoin:miter;stroke-miterlimit:4;stroke-dasharray:none;stroke-opacity:0.10169492"
       d="m 96,988.36216 8,8 0,16.00004 8,8 16,0 16.04571,16 -32.02285,32.0228 -32.02286,0 -32.011428,-32.0114 0,-32.0114 16.005714,-16.00575 z"
       id="path4182"
       inkscape:connector-curvature="0"
       sodipodi:nodetypes="cccccccccccc" />
    <path
       style="fill:url(#radialGradient4552);fill-opacity:1;fill-rule:evenodd;stroke:#000000;stroke-width:4;stroke-linecap:butt;stroke-linejoin:miter;stroke-miterlimit:4;stroke-dasharray:none;stroke-opacity:0.10169492"
       d="m 0,924.36216 0,48.00004 32,32 16,0 16,-16.00004 0,-64 -16,-16 -32,0 z"
       id="path4180-5"
       inkscape:connector-curvature="0"
       sodipodi:nodetypes="ccccccccc" />
    <path
       style="fill:url(#radialGradient4554);fill-opacity:1;fill-rule:evenodd;stroke:#000000;stroke-width:4;stroke-linecap:butt;stroke-linejoin:miter;stroke-miterlimit:4;stroke-dasharray:none;stroke-opacity:0.10169492"
       d="m 128,924.36216 0,48.00004 32,32 16,0 16,-16 0,-64.00004 -16,-16 -32,0 z"
       id="path4180-5-8"
       inkscape:connector-curvature="0"
       sodipodi:nodetypes="ccccccccc" />
    <path
       style="fill:url(#radialGradient4556);fill-opacity:1;fill-rule:evenodd;stroke:#000000;stroke-width:4;stroke-linecap:butt;stroke-linejoin:miter;stroke-miterlimit:4;stroke-dasharray:none;stroke-opacity:0.10169492"
       d="m 64,924.36216 16,16 32,0 16,-16 0,48 16,16 0,16.00004 -16,16 -16,0 -8,-8 0,-16.00004 -8,-8 -32,0 z"
       id="path4249"
       inkscape:connector-curvature="0" />
    <path
       style="fill:url(#radialGradient4558);fill-opacity:1;fill-rule:evenodd;stroke:#000000;stroke-width:4;stroke-linecap:butt;stroke-linejoin:miter;stroke-miterlimit:4;stroke-dasharray:none;stroke-opacity:0.10169492"
       d="m -64,924.36216 16,16 32,0 16,-16 0,48 16,16 0,16.00004 -16,16 -16,0 -8,-8 0,-16.00004 -8,-8 -32,0 z"
       id="path4249-2"
       inkscape:connector-curvature="0" />
    <path
       style="fill:url(#radialGradient4560);fill-opacity:1;fill-rule:evenodd;stroke:#000000;stroke-width:4;stroke-linecap:butt;stroke-linejoin:miter;stroke-miterlimit:4;stroke-dasharray:none;stroke-opacity:0.10169492"
       d="m 96,860.36216 8,8 0,16.00004 8,8 16,0 16.04571,16 -32.02285,32.02275 -32.02286,0 -32.011428,-32.01135 0,-32.0114 16.005714,-16.00575 z"
       id="path4182-7"
       inkscape:connector-curvature="0"
       sodipodi:nodetypes="cccccccccccc" />
    <path
       style="fill:url(#radialGradient4562);fill-opacity:1;fill-rule:evenodd;stroke:#000000;stroke-width:4;stroke-linecap:butt;stroke-linejoin:miter;stroke-miterlimit:4;stroke-dasharray:none;stroke-opacity:0.10169492"
       d="m -32,988.36216 8,8 0,16.00004 8,8 16,0 16.04571,16 -32.02285,32.0227 -32.02286,0 -32.011428,-32.0113 0,-32.0114 16.005714,-16.00575 z"
       id="path4182-7-3"
       inkscape:connector-curvature="0"
       sodipodi:nodetypes="cccccccccccc" />
    <path
       style="fill:url(#radialGradient4564);fill-opacity:1;fill-rule:evenodd;stroke:#000000;stroke-width:4;stroke-linecap:butt;stroke-linejoin:miter;stroke-miterlimit:4;stroke-dasharray:none;stroke-opacity:0.10169492"
       d="m 0,1052.3622 0,48 32,32 16,0 16,-16 0,-64 -16,-16 -32,0 z"
       id="path4180-5-3"
       inkscape:connector-curvature="0"
       sodipodi:nodetypes="ccccccccc" />
    <path
       style="fill:url(#radialGradient4566);fill-opacity:1;fill-rule:evenodd;stroke:#000000;stroke-width:4;stroke-linecap:butt;stroke-linejoin:miter;stroke-miterlimit:4;stroke-dasharray:none;stroke-opacity:0.10169492"
       d="m -64,1052.3622 16,16 32,0 16,-16 0,48 16,16 0,16 -16,16 -16,0 -8,-8 0,-16 -8,-8 -32,0 z"
       id="path4249-2-3"
       inkscape:connector-curvature="0" />
    <path
       style="fill:url(#radialGradient4568);fill-opacity:1;fill-rule:evenodd;stroke:#000000;stroke-width:4;stroke-linecap:butt;stroke-linejoin:miter;stroke-miterlimit:4;stroke-dasharray:none;stroke-opacity:0.10169492"
       d="m 64,1052.3622 16,16 32,0 16,-16 0,48 16,16 0,16 -16,16 -16,0 -8,-8 0,-16 -8,-8 -32,0 z"
       id="path4249-2-3-4"
       inkscape:connector-curvature="0" />
    <path
       style="fill:url(#radialGradient4570);fill-opacity:1;fill-rule:evenodd;stroke:#000000;stroke-width:4;stroke-linecap:butt;stroke-linejoin:miter;stroke-miterlimit:4;stroke-dasharray:none;stroke-opacity:0.10169492"
       d="m 128,1052.3622 0,48 32,32 16,0 16,-16 0,-64 -16,-16 -32,0 z"
       id="path4180-5-3-8"
       inkscape:connector-curvature="0"
       sodipodi:nodetypes="ccccccccc" />
    <path
       style="fill:url(#radialGradient4572);fill-opacity:1;fill-rule:evenodd;stroke:#000000;stroke-width:4;stroke-linecap:butt;stroke-linejoin:miter;stroke-miterlimit:4;stroke-dasharray:none;stroke-opacity:0.10169492"
       d="m 16,988.36216 16,16.00004 16,0 0,32 -32,0 -16,-16 16,-16 z"
       id="path4401"
       inkscape:connector-curvature="0" />
    <path
       style="fill:url(#radialGradient4574);fill-opacity:1;fill-rule:evenodd;stroke:#000000;stroke-width:4;stroke-linecap:butt;stroke-linejoin:miter;stroke-miterlimit:4;stroke-dasharray:none;stroke-opacity:0.10169492"
       d="m 144,988.36216 16,16.00004 16,0 0,32 -32,0 -16,-16 16,-16 z"
       id="path4401-2"
       inkscape:connector-curvature="0" />
  </g>
</svg>
