<?xml version="1.0" encoding="UTF-8" standalone="no"?>
<!-- Created with Inkscape (http://www.inkscape.org/) -->

<svg
   xmlns:dc="http://purl.org/dc/elements/1.1/"
   xmlns:cc="http://creativecommons.org/ns#"
   xmlns:rdf="http://www.w3.org/1999/02/22-rdf-syntax-ns#"
   xmlns:svg="http://www.w3.org/2000/svg"
   xmlns="http://www.w3.org/2000/svg"
   xmlns:xlink="http://www.w3.org/1999/xlink"
   xmlns:sodipodi="http://sodipodi.sourceforge.net/DTD/sodipodi-0.dtd"
   xmlns:inkscape="http://www.inkscape.org/namespaces/inkscape"
   width="128"
   height="128"
   viewBox="0 0 128 128"
   id="svg2"
   version="1.1"
   inkscape:version="0.92.0 r"
   sodipodi:docname="log_jungle_overlay.svg">
  <defs
     id="defs4">
    <linearGradient
       inkscape:collect="always"
       id="linearGradient4203">
      <stop
         style="stop-color:#000000;stop-opacity:0.19774011"
         offset="0"
         id="stop4205" />
      <stop
         style="stop-color:#ffffff;stop-opacity:0"
         offset="1"
         id="stop4207" />
    </linearGradient>
    <linearGradient
       gradientTransform="translate(128,796.36216)"
       inkscape:collect="always"
       xlink:href="#linearGradient4203"
       id="linearGradient4434-1-6"
       x1="-26.826384"
       y1="160"
       x2="34.828426"
       y2="160"
       gradientUnits="userSpaceOnUse" />
    <linearGradient
       inkscape:collect="always"
       xlink:href="#linearGradient4203"
       id="linearGradient4270"
       x1="5.1715727"
       y1="983.948"
       x2="58.828426"
       y2="983.948"
       gradientUnits="userSpaceOnUse" />
    <linearGradient
       inkscape:collect="always"
       xlink:href="#linearGradient4203"
       id="linearGradient4272"
       x1="21.170847"
       y1="1028.3334"
       x2="89.922272"
       y2="1028.3334"
       gradientUnits="userSpaceOnUse" />
    <linearGradient
       inkscape:collect="always"
       xlink:href="#linearGradient4203"
       id="linearGradient4274"
       x1="29.171574"
       y1="984.36218"
       x2="74.828423"
       y2="984.36218"
       gradientUnits="userSpaceOnUse" />
    <linearGradient
       inkscape:collect="always"
       xlink:href="#linearGradient4203"
       id="linearGradient4276"
       x1="-26.826384"
       y1="160.00934"
       x2="34.828426"
       y2="160.00934"
       gradientUnits="userSpaceOnUse" />
    <linearGradient
       inkscape:collect="always"
       xlink:href="#linearGradient4203"
       id="linearGradient4278"
       x1="-26.826384"
       y1="956.37152"
       x2="34.828426"
       y2="956.37152"
       gradientUnits="userSpaceOnUse" />
    <linearGradient
       inkscape:collect="always"
       xlink:href="#linearGradient4203"
       id="linearGradient4280"
       x1="101.17361"
       y1="1084.3715"
       x2="162.82843"
       y2="1084.3715"
       gradientUnits="userSpaceOnUse" />
    <linearGradient
       inkscape:collect="always"
       xlink:href="#linearGradient4203"
       id="linearGradient4284"
       x1="-2.8284271"
       y1="940.36218"
       x2="18.828426"
       y2="940.36218"
       gradientUnits="userSpaceOnUse" />
    <linearGradient
       inkscape:collect="always"
       xlink:href="#linearGradient4203"
       id="linearGradient4286"
       x1="-10.828427"
       y1="960.36218"
       x2="18.828426"
       y2="960.36218"
       gradientUnits="userSpaceOnUse" />
    <linearGradient
       inkscape:collect="always"
       xlink:href="#linearGradient4203"
       id="linearGradient4288"
       x1="-2.8284271"
       y1="988.36218"
       x2="34.828426"
       y2="988.36218"
       gradientUnits="userSpaceOnUse" />
    <linearGradient
       inkscape:collect="always"
       xlink:href="#linearGradient4203"
       id="linearGradient4290"
       x1="117.17157"
       y1="960.36218"
       x2="146.82843"
       y2="960.36218"
       gradientUnits="userSpaceOnUse" />
    <linearGradient
       inkscape:collect="always"
       xlink:href="#linearGradient4203"
       id="linearGradient4292"
       x1="-18.828426"
       y1="1012.3622"
       x2="18.828424"
       y2="1012.3622"
       gradientUnits="userSpaceOnUse" />
    <linearGradient
       inkscape:collect="always"
       xlink:href="#linearGradient4203"
       id="linearGradient4294"
       x1="109.17157"
       y1="1012.3622"
       x2="146.82841"
       y2="1012.3622"
       gradientUnits="userSpaceOnUse" />
    <linearGradient
       inkscape:collect="always"
       xlink:href="#linearGradient4203"
       id="linearGradient4296"
       x1="-2.8284271"
       y1="1024.3622"
       x2="42.828426"
       y2="1024.3622"
       gradientUnits="userSpaceOnUse" />
    <linearGradient
       inkscape:collect="always"
       xlink:href="#linearGradient4203"
       id="linearGradient4298"
       x1="125.17157"
       y1="1024.3622"
       x2="170.82843"
       y2="1024.3622"
       gradientUnits="userSpaceOnUse" />
    <linearGradient
       inkscape:collect="always"
       xlink:href="#linearGradient4203"
       id="linearGradient4300"
       x1="21.171574"
       y1="936.36218"
       x2="82.82843"
       y2="936.36218"
       gradientUnits="userSpaceOnUse" />
    <linearGradient
       inkscape:collect="always"
       xlink:href="#linearGradient4203"
       id="linearGradient4302"
       x1="21.171574"
       y1="1064.3622"
       x2="82.82843"
       y2="1064.3622"
       gradientUnits="userSpaceOnUse" />
    <linearGradient
       inkscape:collect="always"
       xlink:href="#linearGradient4203"
       id="linearGradient4304"
       x1="109.17157"
       y1="1036.3622"
       x2="138.82843"
       y2="1036.3622"
       gradientUnits="userSpaceOnUse" />
    <linearGradient
       inkscape:collect="always"
       xlink:href="#linearGradient4203"
       id="linearGradient4306"
       x1="-18.82843"
       y1="1036.3622"
       x2="10.828424"
       y2="1036.3622"
       gradientUnits="userSpaceOnUse" />
    <linearGradient
       inkscape:collect="always"
       xlink:href="#linearGradient4203"
       id="linearGradient4308"
       x1="45.171574"
       y1="1000.3622"
       x2="106.82843"
       y2="1000.3622"
       gradientUnits="userSpaceOnUse" />
    <linearGradient
       inkscape:collect="always"
       xlink:href="#linearGradient4203"
       id="linearGradient4310"
       x1="45.171574"
       y1="872.36218"
       x2="106.82843"
       y2="872.36218"
       gradientUnits="userSpaceOnUse" />
    <linearGradient
       inkscape:collect="always"
       xlink:href="#linearGradient4203"
       id="linearGradient4312"
       x1="93.17157"
       y1="980.36218"
       x2="130.82843"
       y2="980.36218"
       gradientUnits="userSpaceOnUse" />
    <linearGradient
       inkscape:collect="always"
       xlink:href="#linearGradient4203"
       id="linearGradient4314"
       x1="77.17157"
       y1="1004.3622"
       x2="122.82843"
       y2="1004.3622"
       gradientUnits="userSpaceOnUse" />
    <linearGradient
       inkscape:collect="always"
       xlink:href="#linearGradient4203"
       id="linearGradient4316"
       x1="85.171577"
       y1="996.36218"
       x2="106.82842"
       y2="996.36218"
       gradientUnits="userSpaceOnUse" />
    <linearGradient
       inkscape:collect="always"
       xlink:href="#linearGradient4203"
       id="linearGradient4318"
       x1="61.171574"
       y1="948.36218"
       x2="98.82843"
       y2="948.36218"
       gradientUnits="userSpaceOnUse" />
    <linearGradient
       inkscape:collect="always"
       xlink:href="#linearGradient4203"
       id="linearGradient4320"
       x1="61.171574"
       y1="1076.3622"
       x2="98.82843"
       y2="1076.3622"
       gradientUnits="userSpaceOnUse" />
    <linearGradient
       inkscape:collect="always"
       xlink:href="#linearGradient4203"
       id="linearGradient4322"
       x1="77.17157"
       y1="1044.3622"
       x2="114.82843"
       y2="1044.3622"
       gradientUnits="userSpaceOnUse" />
    <linearGradient
       inkscape:collect="always"
       xlink:href="#linearGradient4203"
       id="linearGradient4324"
       x1="77.17157"
       y1="916.36218"
       x2="114.82843"
       y2="916.36218"
       gradientUnits="userSpaceOnUse" />
    <linearGradient
       inkscape:collect="always"
       xlink:href="#linearGradient4203"
       id="linearGradient4326"
       x1="93.17157"
       y1="1056.3622"
       x2="130.82843"
       y2="1056.3622"
       gradientUnits="userSpaceOnUse" />
    <linearGradient
       inkscape:collect="always"
       xlink:href="#linearGradient4203"
       id="linearGradient4328"
       x1="93.17157"
       y1="928.36218"
       x2="130.82843"
       y2="928.36218"
       gradientUnits="userSpaceOnUse" />
    <linearGradient
       inkscape:collect="always"
       xlink:href="#linearGradient4203"
       id="linearGradient4330"
       x1="77.17157"
       y1="964.36218"
       x2="114.82843"
       y2="964.36218"
       gradientUnits="userSpaceOnUse" />
    <linearGradient
       inkscape:collect="always"
       xlink:href="#linearGradient4203"
       id="linearGradient4332"
       x1="77.17157"
       y1="952.36218"
       x2="106.82843"
       y2="952.36218"
       gradientUnits="userSpaceOnUse" />
    <linearGradient
       gradientTransform="translate(4.8688122e-8,-128)"
       inkscape:collect="always"
       xlink:href="#linearGradient4203"
       id="linearGradient4272-5"
       x1="21.170847"
       y1="1028.3334"
       x2="89.922272"
       y2="1028.3334"
       gradientUnits="userSpaceOnUse" />
  </defs>
  <sodipodi:namedview
     id="base"
     pagecolor="#ffffff"
     bordercolor="#666666"
     borderopacity="1.0"
     inkscape:pageopacity="0.0"
     inkscape:pageshadow="2"
     inkscape:zoom="1.4142136"
     inkscape:cx="-234.91272"
     inkscape:cy="37.787118"
     inkscape:document-units="px"
     inkscape:current-layer="layer1"
     showgrid="true"
     units="px"
     inkscape:window-width="3840"
     inkscape:window-height="2018"
     inkscape:window-x="0"
     inkscape:window-y="86"
     inkscape:window-maximized="1"
     inkscape:snap-bbox="true"
     inkscape:bbox-paths="true"
     inkscape:bbox-nodes="true"
     inkscape:snap-bbox-edge-midpoints="true"
     inkscape:snap-bbox-midpoints="true">
    <inkscape:grid
       type="xygrid"
       id="grid4136"
       empspacing="4"
       dotted="false" />
  </sodipodi:namedview>
  <metadata
     id="metadata7">
    <rdf:RDF>
      <cc:Work
         rdf:about="">
        <dc:format>image/svg+xml</dc:format>
        <dc:type
           rdf:resource="http://purl.org/dc/dcmitype/StillImage" />
        <dc:title></dc:title>
      </cc:Work>
    </rdf:RDF>
  </metadata>
  <g
     inkscape:label="Layer 1"
     inkscape:groupmode="layer"
     id="layer1"
     transform="translate(0,-924.36216)">
    <path
       style="fill:url(#linearGradient4270);fill-opacity:1;fill-rule:evenodd;stroke:#b3b3b3;stroke-width:4;stroke-linecap:butt;stroke-linejoin:miter;stroke-miterlimit:4;stroke-dasharray:none;stroke-opacity:1"
       d="m 12,1056.3622 20,-20 -8,-8 16,-16 -16,-16.00004 8,-8 -16,-16 8,-8 -16,-16 8,-8 -8,-8 20,-20 8,8 -12,12 8,8 -8,8 16,16 -8,8 16,16 -8,8 16,16.00004 -16,16 8,8 -20,20 z"
       id="path4195"
       inkscape:connector-curvature="0"
       sodipodi:nodetypes="ccccccccccccccccccccccccc" />
    <path
       style="fill:url(#linearGradient4272);fill-opacity:1;fill-rule:evenodd;stroke:#b3b3b3;stroke-width:4;stroke-linecap:butt;stroke-linejoin:miter;stroke-miterlimit:4;stroke-dasharray:none;stroke-opacity:1"
       d="m 24,1060.3622 48.008093,-48 -16,-16.00004 8,-8 23.983814,23.93194 -55.983814,56.0681 z"
       id="path4205"
       inkscape:connector-curvature="0"
       sodipodi:nodetypes="ccccccc" />
    <path
       style="fill:url(#linearGradient4274);fill-opacity:1;fill-rule:evenodd;stroke:#b3b3b3;stroke-width:4;stroke-linecap:butt;stroke-linejoin:miter;stroke-miterlimit:4;stroke-dasharray:none;stroke-opacity:1"
       d="m 48,1036.3622 24,-24 -16,-16.00004 8,-8 -16,-16 8,-8 -8,-8 16,-16 -8,-8 -24,24 8,8 -8,8 16,16 -8,8 16,16.00004 -16,16 z"
       id="path4215"
       inkscape:connector-curvature="0" />
    <path
       style="fill:url(#linearGradient4276);fill-opacity:1;fill-rule:evenodd;stroke:#b3b3b3;stroke-width:4;stroke-linecap:butt;stroke-linejoin:miter;stroke-miterlimit:4;stroke-dasharray:none;stroke-opacity:1"
       d="m 24,104 -16,16 -8,8 -8,8 -8,8 8,8 -16,16 L 0.27734375,192.34766 -16,208 -8,216 15.509766,191.86523 -8,168 8,152 l -8,-8 8,-8 16,-16 8,-8 z"
       transform="translate(0,924.36216)"
       id="path4225"
       inkscape:connector-curvature="0"
       sodipodi:nodetypes="cccccccccccccccccc" />
    <path
       style="fill:url(#linearGradient4278);fill-opacity:1;fill-rule:evenodd;stroke:#b3b3b3;stroke-width:4;stroke-linecap:butt;stroke-linejoin:miter;stroke-miterlimit:4;stroke-dasharray:none;stroke-opacity:1"
       d="m 24.000001,900.36216 -16.0000001,16 -7.99999995190604,8 -8.00000004809396,8 -7.9999999,8 7.9999999,8 -15.9999999,16 24.27734295,24.34761 -16.27734295,15.65243 7.9999999,8 23.5097661,-24.13483 -23.5097661,-23.86521 16,-16 -7.99999995190604,-8 7.99999995190604,-8 16.0000001,-16 8,-8 z"
       id="path4225-2"
       inkscape:connector-curvature="0"
       sodipodi:nodetypes="cccccccccccccccccc" />
    <path
       style="fill:url(#linearGradient4434-1-6);fill-opacity:1;fill-rule:evenodd;stroke:#b3b3b3;stroke-width:4;stroke-linecap:butt;stroke-linejoin:miter;stroke-miterlimit:4;stroke-dasharray:none;stroke-opacity:1"
       d="m 152,900.36216 -16,16 -8,8 -8,8 -8,8 8,8 -16,16 24.27734,24.34761 L 112,1004.3622 l 8,8 23.50977,-24.13483 L 120,964.36216 l 16,-16 -8,-8 8,-8 16,-16 8,-8 z"
       id="path4225-2-3"
       inkscape:connector-curvature="0"
       sodipodi:nodetypes="cccccccccccccccccc" />
    <path
       style="fill:url(#linearGradient4280);fill-opacity:1;fill-rule:evenodd;stroke:#b3b3b3;stroke-width:4;stroke-linecap:butt;stroke-linejoin:miter;stroke-miterlimit:4;stroke-dasharray:none;stroke-opacity:1"
       d="m 152,1028.3622 -16,16 -8,8 -8,8 -8,8 8,8 -16,16 24.27734,24.3476 -16.27734,15.6524 8,8 23.50977,-24.1348 L 120,1092.3622 l 16,-16 -8,-8 8,-8 16,-16 8,-8 z"
       id="path4225-2-3-6"
       inkscape:connector-curvature="0"
       sodipodi:nodetypes="cccccccccccccccccc" />
    <path
       style="fill:url(#linearGradient4284);fill-opacity:1;fill-rule:evenodd;stroke:#b3b3b3;stroke-width:4;stroke-linecap:butt;stroke-linejoin:miter;stroke-miterlimit:4;stroke-dasharray:none;stroke-opacity:1"
       d="m 8,932.36216 -8,8 8,8 8,-8 z"
       id="path4795"
       inkscape:connector-curvature="0" />
    <path
       style="fill:url(#linearGradient4286);fill-opacity:1;fill-rule:evenodd;stroke:#b3b3b3;stroke-width:4;stroke-linecap:butt;stroke-linejoin:miter;stroke-miterlimit:4;stroke-dasharray:none;stroke-opacity:1"
       d="m -8,964.36216 16,-16 8,8 -8,8 -8,8 z"
       id="path4805"
       inkscape:connector-curvature="0" />
    <path
       style="fill:url(#linearGradient4288);fill-opacity:1;fill-rule:evenodd;stroke:#b3b3b3;stroke-width:4;stroke-linecap:butt;stroke-linejoin:miter;stroke-miterlimit:4;stroke-dasharray:none;stroke-opacity:1"
       d="m 16,956.36216 8,8 -8,8 16,16 -8,8 8,8.00004 -16,16 -8,-8 8,-8 -8,-8.00004 8,-8 -16,-16 z"
       id="path4815"
       inkscape:connector-curvature="0" />
    <path
       style="fill:url(#linearGradient4290);fill-opacity:1;fill-rule:evenodd;stroke:#b3b3b3;stroke-width:4;stroke-linecap:butt;stroke-linejoin:miter;stroke-miterlimit:4;stroke-dasharray:none;stroke-opacity:1"
       d="m 120,964.36216 16,-16 8,8 -8,8 -8,8 z"
       id="path4805-4"
       inkscape:connector-curvature="0" />
    <path
       style="fill:url(#linearGradient4292);fill-opacity:1;fill-rule:evenodd;stroke:#b3b3b3;stroke-width:4;stroke-linecap:butt;stroke-linejoin:miter;stroke-miterlimit:4;stroke-dasharray:none;stroke-opacity:1"
       d="m 16,1004.3622 -8,-8.00004 -24,24.00004 8,8 z"
       id="path4871"
       inkscape:connector-curvature="0" />
    <path
       style="fill:url(#linearGradient4294);fill-opacity:1;fill-rule:evenodd;stroke:#b3b3b3;stroke-width:4;stroke-linecap:butt;stroke-linejoin:miter;stroke-miterlimit:4;stroke-dasharray:none;stroke-opacity:1"
       d="m 144,1004.3622 -8,-8.00004 -24,24.00004 8,8 z"
       id="path4871-4"
       inkscape:connector-curvature="0" />
    <path
       style="fill:url(#linearGradient4296);fill-opacity:1;fill-rule:evenodd;stroke:#b3b3b3;stroke-width:4;stroke-linecap:butt;stroke-linejoin:miter;stroke-miterlimit:4;stroke-dasharray:none;stroke-opacity:1"
       d="m 32,1004.3622 -16,16 -8,-8 -8,8 8,8 -8,8 8,8 32,-32 z"
       id="path4938"
       inkscape:connector-curvature="0" />
    <path
       style="fill:url(#linearGradient4298);fill-opacity:1;fill-rule:evenodd;stroke:#b3b3b3;stroke-width:4;stroke-linecap:butt;stroke-linejoin:miter;stroke-miterlimit:4;stroke-dasharray:none;stroke-opacity:1"
       d="m 160,1004.3622 -16,16 -8,-8 -8,8 8,8 -8,8 8,8 32,-32 z"
       id="path4938-5"
       inkscape:connector-curvature="0" />
    <path
       style="fill:url(#linearGradient4300);fill-opacity:1;fill-rule:evenodd;stroke:#b3b3b3;stroke-width:4;stroke-linecap:butt;stroke-linejoin:miter;stroke-miterlimit:4;stroke-dasharray:none;stroke-opacity:1"
       d="m 24,948.36216 32,-32 24,24 -8,8 -16,-16 -24,24 z"
       id="path4972"
       inkscape:connector-curvature="0" />
    <path
       style="fill:url(#linearGradient4302);fill-opacity:1;fill-rule:evenodd;stroke:#b3b3b3;stroke-width:4;stroke-linecap:butt;stroke-linejoin:miter;stroke-miterlimit:4;stroke-dasharray:none;stroke-opacity:1"
       d="m 24,1076.3622 32,-32 24,24 -8,8 -16,-16 -24,24 z"
       id="path4972-8"
       inkscape:connector-curvature="0" />
    <path
       style="fill:url(#linearGradient4304);fill-opacity:1;fill-rule:evenodd;stroke:#b3b3b3;stroke-width:4;stroke-linecap:butt;stroke-linejoin:miter;stroke-miterlimit:4;stroke-dasharray:none;stroke-opacity:1"
       d="m 128,1020.3622 8,8 -8,8 8,8 -8,8 -16,-16 z"
       id="path5006"
       inkscape:connector-curvature="0" />
    <path
       style="fill:url(#linearGradient4306);fill-opacity:1;fill-rule:evenodd;stroke:#b3b3b3;stroke-width:4;stroke-linecap:butt;stroke-linejoin:miter;stroke-miterlimit:4;stroke-dasharray:none;stroke-opacity:1"
       d="m -2.9840926e-6,1020.3622 7.9999999840926,8 -7.9999999840926,8 7.9999999840926,8 -7.9999999840926,8 -16.0000000159074,-16 z"
       id="path5006-0"
       inkscape:connector-curvature="0" />
    <path
       style="fill:url(#linearGradient4308);fill-opacity:1;fill-rule:evenodd;stroke:#b3b3b3;stroke-width:4;stroke-linecap:butt;stroke-linejoin:miter;stroke-miterlimit:4;stroke-dasharray:none;stroke-opacity:1"
       d="m 56,1044.3622 32,-32 -40,-40.00004 8,-8 -8,-8 16,-16 8,8 -8,8 8,8 -8,8 40,40.00004 -32,32 8,8 -8,8 z"
       id="path5051"
       inkscape:connector-curvature="0" />
    <path
       style="fill:url(#linearGradient4310);fill-opacity:1;fill-rule:evenodd;stroke:#b3b3b3;stroke-width:4;stroke-linecap:butt;stroke-linejoin:miter;stroke-miterlimit:4;stroke-dasharray:none;stroke-opacity:1"
       d="m 56,916.36217 32,-31.99997 -40,-40.00004 8,-8 -8,-8 16,-16 8,8 -8,8 8,8 -8,8 40,40.00004 -32,31.99997 8,8 -8,8 z"
       id="path5051-8"
       inkscape:connector-curvature="0" />
    <path
       style="fill:url(#linearGradient4312);fill-opacity:1;fill-rule:evenodd;stroke:#b3b3b3;stroke-width:4;stroke-linecap:butt;stroke-linejoin:miter;stroke-miterlimit:4;stroke-dasharray:none;stroke-opacity:1"
       d="m 128,988.36216 -24,-24 -8,8 24,24 z"
       id="path5118"
       inkscape:connector-curvature="0" />
    <path
       style="fill:url(#linearGradient4314);fill-opacity:1;fill-rule:evenodd;stroke:#b3b3b3;stroke-width:4;stroke-linecap:butt;stroke-linejoin:miter;stroke-miterlimit:4;stroke-dasharray:none;stroke-opacity:1"
       d="m 120,1012.3622 -8,-8 8,-8.00004 -24,-24 -16,16 8,8 8,-8 8,8 -8,8.00004 8,8 -8,8 16,16 8,-8 -8,-8 z"
       id="path5128"
       inkscape:connector-curvature="0" />
    <path
       style="fill:url(#linearGradient4316);fill-opacity:1;fill-rule:evenodd;stroke:#b3b3b3;stroke-width:4;stroke-linecap:butt;stroke-linejoin:miter;stroke-miterlimit:4;stroke-dasharray:none;stroke-opacity:1"
       d="m 96,988.36216 -8,8 8,8.00004 8,-8.00004 z"
       id="path4795-1"
       inkscape:connector-curvature="0" />
    <path
       style="fill:url(#linearGradient4318);fill-opacity:1;fill-rule:evenodd;stroke:#b3b3b3;stroke-width:4;stroke-linecap:butt;stroke-linejoin:miter;stroke-miterlimit:4;stroke-dasharray:none;stroke-opacity:1"
       d="m 64,972.36216 8,-8 -8,-8 16,-16 -8,-8 8,-8 -8,-8 8,-8 16,16 -8,8 8,8 -16,16 8,8 -8,8 8,8 -8,8 z"
       id="path5162"
       inkscape:connector-curvature="0" />
    <path
       style="fill:url(#linearGradient4320);fill-opacity:1;fill-rule:evenodd;stroke:#b3b3b3;stroke-width:4;stroke-linecap:butt;stroke-linejoin:miter;stroke-miterlimit:4;stroke-dasharray:none;stroke-opacity:1"
       d="m 64,1100.3622 8,-8 -8,-8 16,-16 -8,-8 8,-8 -8,-8 8,-8 16,16 -8,8 8,8 -16,16 8,8 -8,8 8,8 -8,8 z"
       id="path5162-6"
       inkscape:connector-curvature="0" />
    <path
       style="fill:url(#linearGradient4322);fill-opacity:1;fill-rule:evenodd;stroke:#b3b3b3;stroke-width:4;stroke-linecap:butt;stroke-linejoin:miter;stroke-miterlimit:4;stroke-dasharray:none;stroke-opacity:1"
       d="m 96,1020.3622 -16,16 16,16 -8,8 8,8 16,-16 -16,-16 8,-8 z"
       id="path5218"
       inkscape:connector-curvature="0" />
    <path
       style="fill:url(#linearGradient4324);fill-opacity:1;fill-rule:evenodd;stroke:#b3b3b3;stroke-width:4;stroke-linecap:butt;stroke-linejoin:miter;stroke-miterlimit:4;stroke-dasharray:none;stroke-opacity:1"
       d="m 96,892.3622 -16,16 16,16 -8,8 8,8 16,-16 -16,-16 8,-8 z"
       id="path5218-8"
       inkscape:connector-curvature="0" />
    <path
       style="fill:url(#linearGradient4326);fill-opacity:1;fill-rule:evenodd;stroke:#b3b3b3;stroke-width:4;stroke-linecap:butt;stroke-linejoin:miter;stroke-miterlimit:4;stroke-dasharray:none;stroke-opacity:1"
       d="m 104,1028.3622 24,24 -16,16 8,8 -8,8 -16,-16 16,-16 -16,-16 z"
       id="path5263"
       inkscape:connector-curvature="0" />
    <path
       style="fill:url(#linearGradient4328);fill-opacity:1;fill-rule:evenodd;stroke:#b3b3b3;stroke-width:4;stroke-linecap:butt;stroke-linejoin:miter;stroke-miterlimit:4;stroke-dasharray:none;stroke-opacity:1"
       d="m 104,900.3622 24,24 -16,16 8,8 -8,8 -16,-16 16,-16 -16,-16 z"
       id="path5263-4"
       inkscape:connector-curvature="0" />
    <path
       style="fill:url(#linearGradient4330);fill-opacity:1;fill-rule:evenodd;stroke:#b3b3b3;stroke-width:4;stroke-linecap:butt;stroke-linejoin:miter;stroke-miterlimit:4;stroke-dasharray:none;stroke-opacity:1"
       d="m 88,964.36216 16,-16 8,8 -24,24 -8,-8 z"
       id="path5352"
       inkscape:connector-curvature="0" />
    <path
       style="fill:url(#linearGradient4332);fill-opacity:1;fill-rule:evenodd;stroke:#b3b3b3;stroke-width:4;stroke-linecap:butt;stroke-linejoin:miter;stroke-miterlimit:4;stroke-dasharray:none;stroke-opacity:1"
       d="m 96,940.36216 8,8 -16,16 -8,-8 z"
       id="path5362"
       inkscape:connector-curvature="0" />
    <path
       style="fill:url(#linearGradient4272-5);fill-opacity:1;fill-rule:evenodd;stroke:#b3b3b3;stroke-width:4;stroke-linecap:butt;stroke-linejoin:miter;stroke-miterlimit:4;stroke-dasharray:none;stroke-opacity:1"
       d="m 24,932.3622 48.008093,-48 -16,-16.00004 8,-8 23.983814,23.93194 -55.983814,56.0681 z"
       id="path4205-2"
       inkscape:connector-curvature="0"
       sodipodi:nodetypes="ccccccc" />
  </g>
</svg>
