<?xml version="1.0" encoding="UTF-8" standalone="no"?>
<!-- Created with Inkscape (http://www.inkscape.org/) -->

<svg
   xmlns:dc="http://purl.org/dc/elements/1.1/"
   xmlns:cc="http://creativecommons.org/ns#"
   xmlns:rdf="http://www.w3.org/1999/02/22-rdf-syntax-ns#"
   xmlns:svg="http://www.w3.org/2000/svg"
   xmlns="http://www.w3.org/2000/svg"
   xmlns:xlink="http://www.w3.org/1999/xlink"
   xmlns:sodipodi="http://sodipodi.sourceforge.net/DTD/sodipodi-0.dtd"
   xmlns:inkscape="http://www.inkscape.org/namespaces/inkscape"
   width="128"
   height="128"
   viewBox="0 0 128 128"
   id="svg2"
   version="1.1"
   inkscape:version="0.91 r"
   sodipodi:docname="log_jungle.svg">
  <defs
     id="defs4">
    <linearGradient
       inkscape:collect="always"
       id="linearGradient5364">
      <stop
         style="stop-color:#784421;stop-opacity:1;"
         offset="0"
         id="stop5366" />
      <stop
         style="stop-color:#784421;stop-opacity:0;"
         offset="1"
         id="stop5368" />
    </linearGradient>
    <linearGradient
       inkscape:collect="always"
       id="linearGradient5354">
      <stop
         style="stop-color:#784421;stop-opacity:1;"
         offset="0"
         id="stop5356" />
      <stop
         style="stop-color:#784421;stop-opacity:0;"
         offset="1"
         id="stop5358" />
    </linearGradient>
    <linearGradient
       inkscape:collect="always"
       id="linearGradient5265">
      <stop
         style="stop-color:#784421;stop-opacity:1;"
         offset="0"
         id="stop5267" />
      <stop
         style="stop-color:#784421;stop-opacity:0;"
         offset="1"
         id="stop5269" />
    </linearGradient>
    <linearGradient
       inkscape:collect="always"
       id="linearGradient5220">
      <stop
         style="stop-color:#784421;stop-opacity:1;"
         offset="0"
         id="stop5222" />
      <stop
         style="stop-color:#784421;stop-opacity:0;"
         offset="1"
         id="stop5224" />
    </linearGradient>
    <linearGradient
       inkscape:collect="always"
       id="linearGradient5164">
      <stop
         style="stop-color:#784421;stop-opacity:1;"
         offset="0"
         id="stop5166" />
      <stop
         style="stop-color:#784421;stop-opacity:0;"
         offset="1"
         id="stop5168" />
    </linearGradient>
    <linearGradient
       inkscape:collect="always"
       id="linearGradient5130">
      <stop
         style="stop-color:#784421;stop-opacity:1;"
         offset="0"
         id="stop5132" />
      <stop
         style="stop-color:#784421;stop-opacity:0;"
         offset="1"
         id="stop5134" />
    </linearGradient>
    <linearGradient
       inkscape:collect="always"
       id="linearGradient5120">
      <stop
         style="stop-color:#784421;stop-opacity:1;"
         offset="0"
         id="stop5122" />
      <stop
         style="stop-color:#784421;stop-opacity:0;"
         offset="1"
         id="stop5124" />
    </linearGradient>
    <linearGradient
       inkscape:collect="always"
       id="linearGradient5053">
      <stop
         style="stop-color:#784421;stop-opacity:1;"
         offset="0"
         id="stop5055" />
      <stop
         style="stop-color:#784421;stop-opacity:0;"
         offset="1"
         id="stop5057" />
    </linearGradient>
    <linearGradient
       inkscape:collect="always"
       id="linearGradient5008">
      <stop
         style="stop-color:#784421;stop-opacity:1;"
         offset="0"
         id="stop5010" />
      <stop
         style="stop-color:#784421;stop-opacity:0;"
         offset="1"
         id="stop5012" />
    </linearGradient>
    <linearGradient
       inkscape:collect="always"
       id="linearGradient4974">
      <stop
         style="stop-color:#784421;stop-opacity:1;"
         offset="0"
         id="stop4976" />
      <stop
         style="stop-color:#784421;stop-opacity:0;"
         offset="1"
         id="stop4978" />
    </linearGradient>
    <linearGradient
       inkscape:collect="always"
       id="linearGradient4940">
      <stop
         style="stop-color:#784421;stop-opacity:1;"
         offset="0"
         id="stop4942" />
      <stop
         style="stop-color:#784421;stop-opacity:0;"
         offset="1"
         id="stop4944" />
    </linearGradient>
    <linearGradient
       inkscape:collect="always"
       id="linearGradient4873">
      <stop
         style="stop-color:#784421;stop-opacity:1;"
         offset="0"
         id="stop4875" />
      <stop
         style="stop-color:#784421;stop-opacity:0;"
         offset="1"
         id="stop4877" />
    </linearGradient>
    <linearGradient
       inkscape:collect="always"
       id="linearGradient4817">
      <stop
         style="stop-color:#784421;stop-opacity:1;"
         offset="0"
         id="stop4819" />
      <stop
         style="stop-color:#784421;stop-opacity:0;"
         offset="1"
         id="stop4821" />
    </linearGradient>
    <linearGradient
       inkscape:collect="always"
       id="linearGradient4807">
      <stop
         style="stop-color:#784421;stop-opacity:1;"
         offset="0"
         id="stop4809" />
      <stop
         style="stop-color:#784421;stop-opacity:0;"
         offset="1"
         id="stop4811" />
    </linearGradient>
    <linearGradient
       inkscape:collect="always"
       id="linearGradient4797">
      <stop
         style="stop-color:#784421;stop-opacity:1;"
         offset="0"
         id="stop4799" />
      <stop
         style="stop-color:#784421;stop-opacity:0;"
         offset="1"
         id="stop4801" />
    </linearGradient>
    <linearGradient
       inkscape:collect="always"
       id="linearGradient4428">
      <stop
         style="stop-color:#784421;stop-opacity:1;"
         offset="0"
         id="stop4430" />
      <stop
         style="stop-color:#784421;stop-opacity:0;"
         offset="1"
         id="stop4432" />
    </linearGradient>
    <linearGradient
       inkscape:collect="always"
       id="linearGradient4217">
      <stop
         style="stop-color:#784421;stop-opacity:1;"
         offset="0"
         id="stop4219" />
      <stop
         style="stop-color:#784421;stop-opacity:0;"
         offset="1"
         id="stop4221" />
    </linearGradient>
    <linearGradient
       inkscape:collect="always"
       id="linearGradient4207">
      <stop
         style="stop-color:#784421;stop-opacity:1;"
         offset="0"
         id="stop4209" />
      <stop
         style="stop-color:#784421;stop-opacity:0;"
         offset="1"
         id="stop4211" />
    </linearGradient>
    <linearGradient
       inkscape:collect="always"
       id="linearGradient4197">
      <stop
         style="stop-color:#784421;stop-opacity:1;"
         offset="0"
         id="stop4199" />
      <stop
         style="stop-color:#784421;stop-opacity:0;"
         offset="1"
         id="stop4201" />
    </linearGradient>
    <linearGradient
       inkscape:collect="always"
       xlink:href="#linearGradient4197"
       id="linearGradient4203"
       x1="5.1715729"
       y1="988.36218"
       x2="58.828425"
       y2="988.36218"
       gradientUnits="userSpaceOnUse" />
    <linearGradient
       inkscape:collect="always"
       xlink:href="#linearGradient4207"
       id="linearGradient4213"
       x1="19.171573"
       y1="1023.948"
       x2="90.828426"
       y2="1023.948"
       gradientUnits="userSpaceOnUse" />
    <linearGradient
       inkscape:collect="always"
       xlink:href="#linearGradient4217"
       id="linearGradient4223"
       x1="29.171573"
       y1="984.36218"
       x2="74.828425"
       y2="984.36218"
       gradientUnits="userSpaceOnUse" />
    <linearGradient
       inkscape:collect="always"
       xlink:href="#linearGradient4428"
       id="linearGradient4434"
       x1="-26.826384"
       y1="160"
       x2="34.828427"
       y2="160"
       gradientUnits="userSpaceOnUse" />
    <linearGradient
       gradientTransform="translate(9.4809395e-7,796.36216)"
       inkscape:collect="always"
       xlink:href="#linearGradient4428"
       id="linearGradient4434-1"
       x1="-26.826384"
       y1="160"
       x2="34.828426"
       y2="160"
       gradientUnits="userSpaceOnUse" />
    <linearGradient
       gradientTransform="translate(128,796.36216)"
       inkscape:collect="always"
       xlink:href="#linearGradient4428"
       id="linearGradient4434-1-6"
       x1="-26.826384"
       y1="160"
       x2="34.828426"
       y2="160"
       gradientUnits="userSpaceOnUse" />
    <linearGradient
       gradientTransform="translate(128,924.36216)"
       inkscape:collect="always"
       xlink:href="#linearGradient4428"
       id="linearGradient4434-1-6-8"
       x1="-26.826384"
       y1="160"
       x2="34.828426"
       y2="160"
       gradientUnits="userSpaceOnUse" />
    <linearGradient
       gradientTransform="translate(2.7220117e-6,-128)"
       inkscape:collect="always"
       xlink:href="#linearGradient4428"
       id="linearGradient4213-8"
       x1="19.171574"
       y1="1023.948"
       x2="90.828423"
       y2="1023.948"
       gradientUnits="userSpaceOnUse" />
    <linearGradient
       inkscape:collect="always"
       xlink:href="#linearGradient4797"
       id="linearGradient4803"
       x1="-0.70710678"
       y1="940.36216"
       x2="16.707107"
       y2="940.36216"
       gradientUnits="userSpaceOnUse" />
    <linearGradient
       inkscape:collect="always"
       xlink:href="#linearGradient4807"
       id="linearGradient4813"
       x1="-10.828427"
       y1="960.36216"
       x2="18.828427"
       y2="960.36216"
       gradientUnits="userSpaceOnUse" />
    <linearGradient
       inkscape:collect="always"
       xlink:href="#linearGradient4817"
       id="linearGradient4823"
       x1="-0.70710678"
       y1="988.36218"
       x2="32.707107"
       y2="988.36218"
       gradientUnits="userSpaceOnUse" />
    <linearGradient
       gradientTransform="translate(128,-2.8708344e-6)"
       inkscape:collect="always"
       xlink:href="#linearGradient4817"
       id="linearGradient4813-4"
       x1="-10.828427"
       y1="960.36218"
       x2="18.828426"
       y2="960.36218"
       gradientUnits="userSpaceOnUse" />
    <linearGradient
       inkscape:collect="always"
       xlink:href="#linearGradient4873"
       id="linearGradient4879"
       x1="-18.828426"
       y1="1012.3622"
       x2="18.828424"
       y2="1012.3622"
       gradientUnits="userSpaceOnUse" />
    <linearGradient
       gradientTransform="translate(128,-1.6415393e-7)"
       inkscape:collect="always"
       xlink:href="#linearGradient4873"
       id="linearGradient4879-6"
       x1="-18.828426"
       y1="1012.3622"
       x2="18.828424"
       y2="1012.3622"
       gradientUnits="userSpaceOnUse" />
    <linearGradient
       inkscape:collect="always"
       xlink:href="#linearGradient4940"
       id="linearGradient4946"
       x1="-0.70710678"
       y1="1024.3622"
       x2="40.707107"
       y2="1024.3622"
       gradientUnits="userSpaceOnUse" />
    <linearGradient
       gradientTransform="translate(128,-2.9875254e-5)"
       inkscape:collect="always"
       xlink:href="#linearGradient4940"
       id="linearGradient4946-0"
       x1="-0.70710677"
       y1="1024.3622"
       x2="40.707108"
       y2="1024.3622"
       gradientUnits="userSpaceOnUse" />
    <linearGradient
       inkscape:collect="always"
       xlink:href="#linearGradient4974"
       id="linearGradient4980"
       x1="21.171573"
       y1="936.36216"
       x2="82.828427"
       y2="936.36216"
       gradientUnits="userSpaceOnUse" />
    <linearGradient
       gradientTransform="translate(1.3697647e-8,128)"
       inkscape:collect="always"
       xlink:href="#linearGradient4974"
       id="linearGradient4980-6"
       x1="21.171574"
       y1="936.36218"
       x2="82.82843"
       y2="936.36218"
       gradientUnits="userSpaceOnUse" />
    <linearGradient
       inkscape:collect="always"
       xlink:href="#linearGradient5008"
       id="linearGradient5014"
       x1="111.29289"
       y1="1036.3622"
       x2="136.70711"
       y2="1036.3622"
       gradientUnits="userSpaceOnUse" />
    <linearGradient
       gradientTransform="translate(-128,-2.9870834e-5)"
       inkscape:collect="always"
       xlink:href="#linearGradient5008"
       id="linearGradient5014-9"
       x1="111.29289"
       y1="1036.3622"
       x2="136.70711"
       y2="1036.3622"
       gradientUnits="userSpaceOnUse" />
    <linearGradient
       inkscape:collect="always"
       xlink:href="#linearGradient5053"
       id="linearGradient5059"
       x1="45.171573"
       y1="1000.3622"
       x2="106.82843"
       y2="1000.3622"
       gradientUnits="userSpaceOnUse" />
    <linearGradient
       gradientTransform="translate(1.1487941e-8,-128)"
       inkscape:collect="always"
       xlink:href="#linearGradient5053"
       id="linearGradient5059-8"
       x1="45.171574"
       y1="1000.3622"
       x2="106.82843"
       y2="1000.3622"
       gradientUnits="userSpaceOnUse" />
    <linearGradient
       inkscape:collect="always"
       xlink:href="#linearGradient5120"
       id="linearGradient5126"
       x1="95.292893"
       y1="980.36216"
       x2="128.70711"
       y2="980.36216"
       gradientUnits="userSpaceOnUse" />
    <linearGradient
       inkscape:collect="always"
       xlink:href="#linearGradient5130"
       id="linearGradient5136"
       x1="77.171573"
       y1="1004.3622"
       x2="122.82843"
       y2="1004.3622"
       gradientUnits="userSpaceOnUse" />
    <linearGradient
       gradientTransform="translate(88,55.999997)"
       inkscape:collect="always"
       xlink:href="#linearGradient5130"
       id="linearGradient4803-5"
       x1="-0.70710677"
       y1="940.36218"
       x2="16.707108"
       y2="940.36218"
       gradientUnits="userSpaceOnUse" />
    <linearGradient
       inkscape:collect="always"
       xlink:href="#linearGradient5164"
       id="linearGradient5170"
       x1="63.292893"
       y1="948.36216"
       x2="96.707107"
       y2="948.36216"
       gradientUnits="userSpaceOnUse" />
    <linearGradient
       gradientTransform="translate(1.1487941e-8,128)"
       inkscape:collect="always"
       xlink:href="#linearGradient5164"
       id="linearGradient5170-2"
       x1="63.292892"
       y1="948.36218"
       x2="96.707108"
       y2="948.36218"
       gradientUnits="userSpaceOnUse" />
    <linearGradient
       inkscape:collect="always"
       xlink:href="#linearGradient5220"
       id="linearGradient5226"
       x1="77.171573"
       y1="1044.3622"
       x2="114.82843"
       y2="1044.3622"
       gradientUnits="userSpaceOnUse" />
    <linearGradient
       gradientTransform="translate(1.5907361e-8,-128.00003)"
       inkscape:collect="always"
       xlink:href="#linearGradient5220"
       id="linearGradient5226-2"
       x1="77.17157"
       y1="1044.3622"
       x2="114.82843"
       y2="1044.3622"
       gradientUnits="userSpaceOnUse" />
    <linearGradient
       inkscape:collect="always"
       xlink:href="#linearGradient5265"
       id="linearGradient5271"
       x1="95.292893"
       y1="1056.3622"
       x2="128.70711"
       y2="1056.3622"
       gradientUnits="userSpaceOnUse" />
    <linearGradient
       gradientTransform="translate(1.5907361e-8,-128.00003)"
       inkscape:collect="always"
       xlink:href="#linearGradient5265"
       id="linearGradient5271-8"
       x1="95.292892"
       y1="1056.3622"
       x2="128.70711"
       y2="1056.3622"
       gradientUnits="userSpaceOnUse" />
    <linearGradient
       inkscape:collect="always"
       xlink:href="#linearGradient5354"
       id="linearGradient5360"
       x1="77.171573"
       y1="964.36216"
       x2="114.82843"
       y2="964.36216"
       gradientUnits="userSpaceOnUse" />
    <linearGradient
       inkscape:collect="always"
       xlink:href="#linearGradient5364"
       id="linearGradient5370"
       x1="79.292893"
       y1="952.36216"
       x2="104.70711"
       y2="952.36216"
       gradientUnits="userSpaceOnUse" />
  </defs>
  <sodipodi:namedview
     id="base"
     pagecolor="#ffffff"
     bordercolor="#666666"
     borderopacity="1.0"
     inkscape:pageopacity="0.0"
     inkscape:pageshadow="2"
     inkscape:zoom="1.979899"
     inkscape:cx="86.589695"
     inkscape:cy="87.531067"
     inkscape:document-units="px"
     inkscape:current-layer="layer1"
     showgrid="true"
     units="px"
     inkscape:window-width="852"
     inkscape:window-height="466"
     inkscape:window-x="207"
     inkscape:window-y="199"
     inkscape:window-maximized="0">
    <inkscape:grid
       type="xygrid"
       id="grid4136"
       empspacing="4"
       dotted="false" />
  </sodipodi:namedview>
  <metadata
     id="metadata7">
    <rdf:RDF>
      <cc:Work
         rdf:about="">
        <dc:format>image/svg+xml</dc:format>
        <dc:type
           rdf:resource="http://purl.org/dc/dcmitype/StillImage" />
        <dc:title />
      </cc:Work>
    </rdf:RDF>
  </metadata>
  <g
     inkscape:label="Layer 1"
     inkscape:groupmode="layer"
     id="layer1"
     transform="translate(0,-924.36216)">
    <rect
       style="opacity:1;fill:#a05a2c;fill-opacity:1;stroke:none;stroke-width:4;stroke-linecap:square;stroke-linejoin:miter;stroke-miterlimit:4;stroke-dasharray:none;stroke-opacity:1"
       id="rect4134"
       width="128"
       height="128"
       x="0"
       y="924.36218" />
    <path
       style="fill:url(#linearGradient4203);fill-opacity:1;fill-rule:evenodd;stroke:#784421;stroke-width:4;stroke-linecap:butt;stroke-linejoin:miter;stroke-miterlimit:4;stroke-dasharray:none;stroke-opacity:1"
       d="m 12,1056.3622 20,-20 -8,-8 16,-16 -16,-16.00004 8,-8 -16,-16 8,-8 -16,-16 8,-8 -8,-8 20,-20 8,8 -12,12 8,8 -8,8 16,16 -8,8 16,16 -8,8 16,16.00004 -16,16 8,8 -20,20 z"
       id="path4195"
       inkscape:connector-curvature="0"
       sodipodi:nodetypes="ccccccccccccccccccccccccc" />
    <path
       style="fill:url(#linearGradient4213);fill-opacity:1;fill-rule:evenodd;stroke:#784421;stroke-width:4;stroke-linecap:butt;stroke-linejoin:miter;stroke-miterlimit:4;stroke-dasharray:none;stroke-opacity:1"
       d="m 24,1060.3622 47.144126,-47.0958 -16,-16.00001 L 64,988.36216 87.144126,1013.2664 32,1068.3622 Z"
       id="path4205"
       inkscape:connector-curvature="0"
       sodipodi:nodetypes="ccccccc" />
    <path
       style="fill:url(#linearGradient4223);fill-rule:evenodd;stroke:#784421;stroke-width:4;stroke-linecap:butt;stroke-linejoin:miter;stroke-opacity:1;stroke-miterlimit:4;stroke-dasharray:none;fill-opacity:1"
       d="m 48,1036.3622 24,-24 -16,-16.00004 8,-8 -16,-16 8,-8 -8,-8 16,-16 -8,-8 -24,24 8,8 -8,8 16,16 -8,8 16,16.00004 -16,16 z"
       id="path4215"
       inkscape:connector-curvature="0" />
    <path
       style="fill:url(#linearGradient4434);fill-opacity:1;fill-rule:evenodd;stroke:#784421;stroke-width:4;stroke-linecap:butt;stroke-linejoin:miter;stroke-miterlimit:4;stroke-dasharray:none;stroke-opacity:1"
       d="m 24,104 -16,16 -8,8 -8,8 -8,8 8,8 -16,16 L 0.27734375,192.34766 -16,208 -8,216 15.509766,191.86523 -8,168 8,152 l -8,-8 8,-8 16,-16 8,-8 z"
       transform="translate(0,924.36216)"
       id="path4225"
       inkscape:connector-curvature="0"
       sodipodi:nodetypes="cccccccccccccccccc" />
    <path
       style="fill:url(#linearGradient4434-1);fill-opacity:1;fill-rule:evenodd;stroke:#784421;stroke-width:4;stroke-linecap:butt;stroke-linejoin:miter;stroke-miterlimit:4;stroke-dasharray:none;stroke-opacity:1"
       d="m 24.000001,900.36216 -16.0000001,16 -7.99999995190604,8 -8.00000004809396,8 -7.9999999,8 7.9999999,8 -15.9999999,16 24.27734295,24.34761 -16.27734295,15.65243 7.9999999,8 23.5097661,-24.13483 -23.5097661,-23.86521 16,-16 -7.99999995190604,-8 7.99999995190604,-8 16.0000001,-16 8,-8 z"
       id="path4225-2"
       inkscape:connector-curvature="0"
       sodipodi:nodetypes="cccccccccccccccccc" />
    <path
       style="fill:url(#linearGradient4434-1-6);fill-opacity:1;fill-rule:evenodd;stroke:#784421;stroke-width:4;stroke-linecap:butt;stroke-linejoin:miter;stroke-miterlimit:4;stroke-dasharray:none;stroke-opacity:1"
       d="m 152,900.36216 -16,16 -8,8 -8,8 -8,8 8,8 -16,16 24.27734,24.34761 L 112,1004.3622 l 8,8 23.50977,-24.13483 L 120,964.36216 l 16,-16 -8,-8 8,-8 16,-16 8,-8 z"
       id="path4225-2-3"
       inkscape:connector-curvature="0"
       sodipodi:nodetypes="cccccccccccccccccc" />
    <path
       style="fill:url(#linearGradient4434-1-6-8);fill-opacity:1;fill-rule:evenodd;stroke:#784421;stroke-width:4;stroke-linecap:butt;stroke-linejoin:miter;stroke-miterlimit:4;stroke-dasharray:none;stroke-opacity:1"
       d="m 152,1028.3622 -16,16 -8,8 -8,8 -8,8 8,8 -16,16 24.27734,24.3476 -16.27734,15.6524 8,8 23.50977,-24.1348 L 120,1092.3622 l 16,-16 -8,-8 8,-8 16,-16 8,-8 z"
       id="path4225-2-3-6"
       inkscape:connector-curvature="0"
       sodipodi:nodetypes="cccccccccccccccccc" />
    <path
       style="fill:url(#linearGradient4213-8);fill-opacity:1;fill-rule:evenodd;stroke:#784421;stroke-width:4;stroke-linecap:butt;stroke-linejoin:miter;stroke-miterlimit:4;stroke-dasharray:none;stroke-opacity:1"
       d="m 24.000002,932.3622 47.144127,-47.0958 -16,-16.00001 8.855874,-8.90423 23.144126,24.90424 -55.144126,55.09577 z"
       id="path4205-6"
       inkscape:connector-curvature="0"
       sodipodi:nodetypes="ccccccc" />
    <path
       style="fill:url(#linearGradient4803);fill-rule:evenodd;stroke:#784421;stroke-width:4;stroke-linecap:butt;stroke-linejoin:miter;stroke-opacity:1;fill-opacity:1;stroke-miterlimit:4;stroke-dasharray:none"
       d="m 8,932.36216 -8,8 8,8 8,-8 z"
       id="path4795"
       inkscape:connector-curvature="0" />
    <path
       style="fill:url(#linearGradient4813);fill-rule:evenodd;stroke:#784421;stroke-width:4;stroke-linecap:butt;stroke-linejoin:miter;stroke-opacity:1;stroke-miterlimit:4;stroke-dasharray:none;fill-opacity:1"
       d="m -8,964.36216 16,-16 8,8 -8,8 -8,8 z"
       id="path4805"
       inkscape:connector-curvature="0" />
    <path
       style="fill:url(#linearGradient4823);fill-rule:evenodd;stroke:#784421;stroke-width:4;stroke-linecap:butt;stroke-linejoin:miter;stroke-opacity:1;fill-opacity:1;stroke-miterlimit:4;stroke-dasharray:none"
       d="m 16,956.36216 8,8 -8,8 16,16 -8,8 8,8.00004 -16,16 -8,-8 8,-8 -8,-8.00004 8,-8 -16,-16 z"
       id="path4815"
       inkscape:connector-curvature="0" />
    <path
       style="fill:url(#linearGradient4813-4);fill-opacity:1;fill-rule:evenodd;stroke:#784421;stroke-width:4;stroke-linecap:butt;stroke-linejoin:miter;stroke-miterlimit:4;stroke-dasharray:none;stroke-opacity:1"
       d="m 120,964.36216 16,-16 8,8 -8,8 -8,8 z"
       id="path4805-4"
       inkscape:connector-curvature="0" />
    <path
       style="fill:url(#linearGradient4879);fill-rule:evenodd;stroke:#784421;stroke-width:4;stroke-linecap:butt;stroke-linejoin:miter;stroke-opacity:1;stroke-miterlimit:4;stroke-dasharray:none;fill-opacity:1"
       d="m 16,1004.3622 -8,-8.00004 -24,24.00004 8,8 z"
       id="path4871"
       inkscape:connector-curvature="0" />
    <path
       style="fill:url(#linearGradient4879-6);fill-opacity:1;fill-rule:evenodd;stroke:#784421;stroke-width:4;stroke-linecap:butt;stroke-linejoin:miter;stroke-miterlimit:4;stroke-dasharray:none;stroke-opacity:1"
       d="m 144,1004.3622 -8,-8.00004 -24,24.00004 8,8 z"
       id="path4871-4"
       inkscape:connector-curvature="0" />
    <path
       style="fill:url(#linearGradient4946);fill-rule:evenodd;stroke:#784421;stroke-width:4;stroke-linecap:butt;stroke-linejoin:miter;stroke-opacity:1;fill-opacity:1;stroke-miterlimit:4;stroke-dasharray:none"
       d="m 32,1004.3622 -16,16 -8,-8 -8,8 8,8 -8,8 8,8 32,-32 z"
       id="path4938"
       inkscape:connector-curvature="0" />
    <path
       style="fill:url(#linearGradient4946-0);fill-opacity:1;fill-rule:evenodd;stroke:#784421;stroke-width:4;stroke-linecap:butt;stroke-linejoin:miter;stroke-miterlimit:4;stroke-dasharray:none;stroke-opacity:1"
       d="m 160,1004.3622 -16,16 -8,-8 -8,8 8,8 -8,8 8,8 32,-32 z"
       id="path4938-5"
       inkscape:connector-curvature="0" />
    <path
       style="fill:url(#linearGradient4980);fill-rule:evenodd;stroke:#784421;stroke-width:4;stroke-linecap:butt;stroke-linejoin:miter;stroke-opacity:1;stroke-miterlimit:4;stroke-dasharray:none;fill-opacity:1"
       d="m 24,948.36216 32,-32 24,24 -8,8 -16,-16 -24,24 z"
       id="path4972"
       inkscape:connector-curvature="0" />
    <path
       style="fill:url(#linearGradient4980-6);fill-opacity:1;fill-rule:evenodd;stroke:#784421;stroke-width:4;stroke-linecap:butt;stroke-linejoin:miter;stroke-miterlimit:4;stroke-dasharray:none;stroke-opacity:1"
       d="m 24,1076.3622 32,-32 24,24 -8,8 -16,-16 -24,24 z"
       id="path4972-8"
       inkscape:connector-curvature="0" />
    <path
       style="fill:url(#linearGradient5014);fill-rule:evenodd;stroke:#784421;stroke-width:4;stroke-linecap:butt;stroke-linejoin:miter;stroke-opacity:1;fill-opacity:1;stroke-miterlimit:4;stroke-dasharray:none"
       d="m 128,1020.3622 8,8 -8,8 8,8 -8,8 -16,-16 z"
       id="path5006"
       inkscape:connector-curvature="0" />
    <path
       style="fill:url(#linearGradient5014-9);fill-opacity:1;fill-rule:evenodd;stroke:#784421;stroke-width:4;stroke-linecap:butt;stroke-linejoin:miter;stroke-miterlimit:4;stroke-dasharray:none;stroke-opacity:1"
       d="m -2.9840926e-6,1020.3622 7.9999999840926,8 -7.9999999840926,8 7.9999999840926,8 -7.9999999840926,8 -16.0000000159074,-16 z"
       id="path5006-0"
       inkscape:connector-curvature="0" />
    <path
       style="fill:url(#linearGradient5059);fill-rule:evenodd;stroke:#784421;stroke-width:4;stroke-linecap:butt;stroke-linejoin:miter;stroke-opacity:1;stroke-miterlimit:4;stroke-dasharray:none;fill-opacity:1"
       d="m 56,1044.3622 32,-32 -40,-40.00004 8,-8 -8,-8 16,-16 8,8 -8,8 8,8 -8,8 40,40.00004 -32,32 8,8 -8,8 -16,-16 z"
       id="path5051"
       inkscape:connector-curvature="0" />
    <path
       style="fill:url(#linearGradient5059-8);fill-opacity:1;fill-rule:evenodd;stroke:#784421;stroke-width:4;stroke-linecap:butt;stroke-linejoin:miter;stroke-miterlimit:4;stroke-dasharray:none;stroke-opacity:1"
       d="m 56,916.36217 32,-31.99997 -40,-40.00004 8,-8 -8,-8 16,-16 8,8 -8,8 8,8 -8,8 40,40.00004 -32,31.99997 8,8 -8,8 -16,-16 z"
       id="path5051-8"
       inkscape:connector-curvature="0" />
    <path
       style="fill:url(#linearGradient5126);fill-rule:evenodd;stroke:#784421;stroke-width:4;stroke-linecap:butt;stroke-linejoin:miter;stroke-opacity:1;fill-opacity:1;stroke-miterlimit:4;stroke-dasharray:none"
       d="m 128,988.36216 -24,-24 -8,8 24,24 z"
       id="path5118"
       inkscape:connector-curvature="0" />
    <path
       style="fill:url(#linearGradient5136);fill-rule:evenodd;stroke:#784421;stroke-width:4;stroke-linecap:butt;stroke-linejoin:miter;stroke-opacity:1;stroke-miterlimit:4;stroke-dasharray:none;fill-opacity:1"
       d="m 120,1012.3622 -8,-8 8,-8.00004 -24,-24 -16,16 8,8 8,-8 8,8 -8,8.00004 8,8 -8,8 16,16 8,-8 -8,-8 z"
       id="path5128"
       inkscape:connector-curvature="0" />
    <path
       style="fill:url(#linearGradient4803-5);fill-opacity:1;fill-rule:evenodd;stroke:#784421;stroke-width:4;stroke-linecap:butt;stroke-linejoin:miter;stroke-miterlimit:4;stroke-dasharray:none;stroke-opacity:1"
       d="m 96,988.36216 -8,8 8,8.00004 8,-8.00004 z"
       id="path4795-1"
       inkscape:connector-curvature="0" />
    <path
       style="fill:url(#linearGradient5170);fill-rule:evenodd;stroke:#784421;stroke-width:4;stroke-linecap:butt;stroke-linejoin:miter;stroke-opacity:1;fill-opacity:1;stroke-miterlimit:4;stroke-dasharray:none"
       d="m 64,972.36216 8,-8 -8,-8 16,-16 -8,-8 8,-8 -8,-8 8,-8 16,16 -8,8 8,8 -16,16 8,8 -8,8 8,8 -8,8 z"
       id="path5162"
       inkscape:connector-curvature="0" />
    <path
       style="fill:url(#linearGradient5170-2);fill-opacity:1;fill-rule:evenodd;stroke:#784421;stroke-width:4;stroke-linecap:butt;stroke-linejoin:miter;stroke-miterlimit:4;stroke-dasharray:none;stroke-opacity:1"
       d="m 64,1100.3622 8,-8 -8,-8 16,-16 -8,-8 8,-8 -8,-8 8,-8 16,16 -8,8 8,8 -16,16 8,8 -8,8 8,8 -8,8 z"
       id="path5162-6"
       inkscape:connector-curvature="0" />
    <path
       style="fill:url(#linearGradient5226);fill-rule:evenodd;stroke:#784421;stroke-width:4;stroke-linecap:butt;stroke-linejoin:miter;stroke-opacity:1;stroke-miterlimit:4;stroke-dasharray:none;fill-opacity:1"
       d="m 96,1020.3622 -16,16 16,16 -8,8 8,8 16,-16 -16,-16 8,-8 z"
       id="path5218"
       inkscape:connector-curvature="0" />
    <path
       style="fill:url(#linearGradient5226-2);fill-opacity:1;fill-rule:evenodd;stroke:#784421;stroke-width:4;stroke-linecap:butt;stroke-linejoin:miter;stroke-miterlimit:4;stroke-dasharray:none;stroke-opacity:1"
       d="m 96,892.3622 -16,16 16,16 -8,8 8,8 16,-16 -16,-16 8,-8 z"
       id="path5218-8"
       inkscape:connector-curvature="0" />
    <path
       style="fill:url(#linearGradient5271);fill-rule:evenodd;stroke:#784421;stroke-width:4;stroke-linecap:butt;stroke-linejoin:miter;stroke-opacity:1;fill-opacity:1;stroke-miterlimit:4;stroke-dasharray:none"
       d="m 104,1028.3622 24,24 -16,16 8,8 -8,8 -16,-16 16,-16 -16,-16 z"
       id="path5263"
       inkscape:connector-curvature="0" />
    <path
       style="fill:url(#linearGradient5271-8);fill-opacity:1;fill-rule:evenodd;stroke:#784421;stroke-width:4;stroke-linecap:butt;stroke-linejoin:miter;stroke-miterlimit:4;stroke-dasharray:none;stroke-opacity:1"
       d="m 104,900.3622 24,24 -16,16 8,8 -8,8 -16,-16 16,-16 -16,-16 z"
       id="path5263-4"
       inkscape:connector-curvature="0" />
    <path
       style="fill:url(#linearGradient5360);fill-rule:evenodd;stroke:#784421;stroke-width:4;stroke-linecap:butt;stroke-linejoin:miter;stroke-opacity:1;stroke-miterlimit:4;stroke-dasharray:none;fill-opacity:1"
       d="m 88,964.36216 16,-16 8,8 -24,24 -8,-8 z"
       id="path5352"
       inkscape:connector-curvature="0" />
    <path
       style="fill:url(#linearGradient5370);fill-rule:evenodd;stroke:#784421;stroke-width:4;stroke-linecap:butt;stroke-linejoin:miter;stroke-opacity:1;fill-opacity:1;stroke-miterlimit:4;stroke-dasharray:none"
       d="m 96,940.36216 8,8 -16,16 -8,-8 z"
       id="path5362"
       inkscape:connector-curvature="0" />
  </g>
</svg>
