<?xml version="1.0" encoding="UTF-8" standalone="no"?>
<!-- Created with Inkscape (http://www.inkscape.org/) -->

<svg
   xmlns:dc="http://purl.org/dc/elements/1.1/"
   xmlns:cc="http://creativecommons.org/ns#"
   xmlns:rdf="http://www.w3.org/1999/02/22-rdf-syntax-ns#"
   xmlns:svg="http://www.w3.org/2000/svg"
   xmlns="http://www.w3.org/2000/svg"
   xmlns:sodipodi="http://sodipodi.sourceforge.net/DTD/sodipodi-0.dtd"
   xmlns:inkscape="http://www.inkscape.org/namespaces/inkscape"
   width="512"
   height="512"
   viewBox="0 0 512 512"
   id="svg2"
   version="1.1"
   inkscape:version="0.92.1 unknown"
   sodipodi:docname="mojang.svg">
  <defs
     id="defs4" />
  <sodipodi:namedview
     id="base"
     pagecolor="#ffffff"
     bordercolor="#666666"
     borderopacity="1.0"
     inkscape:pageopacity="0.0"
     inkscape:pageshadow="2"
     inkscape:zoom="1.4142136"
     inkscape:cx="312.94912"
     inkscape:cy="285.90378"
     inkscape:document-units="px"
     inkscape:current-layer="layer1"
     showgrid="true"
     units="px"
     width="512px"
     inkscape:window-width="2160"
     inkscape:window-height="1321"
     inkscape:window-x="0"
     inkscape:window-y="49"
     inkscape:window-maximized="1"
     inkscape:snap-bbox="true"
     inkscape:bbox-nodes="true"
     inkscape:bbox-paths="true"
     inkscape:snap-bbox-midpoints="true"
     inkscape:object-nodes="true"
     inkscape:snap-grids="true">
    <inkscape:grid
       type="xygrid"
       id="grid3338"
       empspacing="8" />
  </sodipodi:namedview>
  <metadata
     id="metadata7">
    <rdf:RDF>
      <cc:Work
         rdf:about="">
        <dc:format>image/svg+xml</dc:format>
        <dc:type
           rdf:resource="http://purl.org/dc/dcmitype/StillImage" />
        <dc:title></dc:title>
      </cc:Work>
    </rdf:RDF>
  </metadata>
  <g
     inkscape:label="Layer 1"
     inkscape:groupmode="layer"
     id="layer1"
     transform="translate(0,-540.3622)">
    <g
       id="g4515"
       transform="matrix(0.19205297,0,0,0.19205297,-106.59601,809.35224)">
      <path
         transform="translate(0,-1107.6378)"
         sodipodi:nodetypes="ssccsscscscccccssccccccc"
         inkscape:connector-curvature="0"
         id="rect4504"
         d="m 752,848 c -70.912,0 -128,57.088 -128,128 v 56 200 h 272 c 70.912,0 128,-57.088 128,-128 V 848 Z m 152,40 c 24,40 16,72 0,72 -16,0 -21.13208,-37.89643 0,-72 z m -96,56 c 40,32 40,24 56,0 40,40 40,40 64,24 0,0 24,64 16,112 -112,-152 -208,-96 -208,-16 0,80 82.5,75.5 150,75.5 37.62645,0 54.73827,0.6122 66.9375,-6.9785 -7.54878,14.5505 -19.8913,26.511 -35.55078,32.1289 -67.4114,5.4534 -135.11557,3.5625 -202.73242,3.0918 -10.91796,-6.3445 -20.26019,-15.1919 -26.62891,-26.1817 -0.0662,-52.236 0.37132,-104.4723 -0.11914,-156.70698 -1.67367,-11.94614 0.56629,-24.00565 5.64063,-34.78711 C 699.41549,942.60308 766.80163,935.70907 808,944 Z"
         style="opacity:1;fill:#df232f;fill-opacity:1;stroke:none;stroke-width:4;stroke-linecap:square;stroke-miterlimit:4;stroke-dasharray:none;stroke-opacity:1" />
      <g
         id="g4503">
        <path
           style="fill:none;fill-rule:evenodd;stroke:#000000;stroke-width:80;stroke-linecap:butt;stroke-linejoin:bevel;stroke-miterlimit:4;stroke-dasharray:none;stroke-opacity:1"
           d="m 1104,124.3622 v -360 l 136,216 136,-216 v 360"
           id="path4682"
           inkscape:connector-curvature="0"
           sodipodi:nodetypes="ccccc" />
        <circle
           style="opacity:1;fill:none;fill-opacity:1;stroke:#000000;stroke-width:73.14696503;stroke-linecap:square;stroke-linejoin:bevel;stroke-miterlimit:4;stroke-dasharray:none;stroke-opacity:1"
           id="path4686"
           cx="1640"
           cy="-67.637802"
           r="155.42651" />
        <path
           style="fill:none;fill-rule:evenodd;stroke:#000000;stroke-width:80;stroke-linecap:butt;stroke-linejoin:miter;stroke-miterlimit:4;stroke-dasharray:none;stroke-opacity:1"
           d="m 1848,-219.6378 h 176 v 200 c 0,104 -120,104 -120,104 h -56"
           id="path4688"
           inkscape:connector-curvature="0"
           sodipodi:nodetypes="ccscc" />
        <g
           id="g4493">
          <path
             sodipodi:nodetypes="ccc"
             inkscape:connector-curvature="0"
             id="path4690"
             d="m 2112,108.3622 128,-352 136,352"
             style="fill:none;fill-rule:evenodd;stroke:#000000;stroke-width:80;stroke-linecap:butt;stroke-linejoin:bevel;stroke-miterlimit:4;stroke-dasharray:none;stroke-opacity:1" />
          <path
             inkscape:connector-curvature="0"
             id="path4692"
             d="m 2152,-3.6378 h 176"
             style="fill:none;fill-rule:evenodd;stroke:#000000;stroke-width:80;stroke-linecap:butt;stroke-linejoin:miter;stroke-miterlimit:4;stroke-dasharray:none;stroke-opacity:1" />
        </g>
        <path
           style="fill:none;fill-rule:evenodd;stroke:#000000;stroke-width:80;stroke-linecap:butt;stroke-linejoin:bevel;stroke-miterlimit:4;stroke-dasharray:none;stroke-opacity:1"
           d="m 2472,124.3622 v -360 l 216,336 v -360"
           id="path4694"
           inkscape:connector-curvature="0"
           sodipodi:nodetypes="cccc" />
        <path
           style="fill:none;fill-rule:evenodd;stroke:#000000;stroke-width:80;stroke-linecap:butt;stroke-linejoin:miter;stroke-miterlimit:4;stroke-dasharray:none;stroke-opacity:1"
           d="m 2928,-67.6378 h 184 c 0,160 -160,152 -160,152 -152,0 -160,-152 -160,-152 0,-160 160,-152 160,-152 96,0 144,72 144,72"
           id="path4696"
           inkscape:connector-curvature="0"
           sodipodi:nodetypes="cccccc" />
      </g>
    </g>
  </g>
</svg>
